<?xml version="1.0" encoding="UTF-8" standalone="no"?><!-- Generator: Gravit.io --><svg xmlns="http://www.w3.org/2000/svg" xmlns:xlink="http://www.w3.org/1999/xlink" style="isolation:isolate" viewBox="0 0 1920 1137.5" width="1920pt" height="1137.5pt"><defs><clipPath id="_clipPath_GNOe0tbWwru9GreBC3m9J5S10c2g6EUl"><rect width="1920" height="1137.5"/></clipPath></defs><g clip-path="url(#_clipPath_GNOe0tbWwru9GreBC3m9J5S10c2g6EUl)"><linearGradient id="_lgradient_0" x1="-0.005078124999999989" y1="0.06111111111111112" x2="0.8925678001101325" y2="0.6774840920215368" gradientTransform="matrix(1920,0,0,1137.5,-1,0)" gradientUnits="userSpaceOnUse"><stop offset="0%" stop-opacity="1" style="stop-color:rgb(0,21,255)"/><stop offset="98.69565217391305%" stop-opacity="1" style="stop-color:rgb(0,149,255)"/></linearGradient><rect x="-1" y="0" width="1920" height="1137.5" transform="matrix(1,0,0,1,0,0)" fill="url(#_lgradient_0)"/><rect x="67" y="64" width="1796" height="1009" transform="matrix(1,0,0,1,0,0)" fill="none" vector-effect="non-scaling-stroke" stroke-width="20" stroke="rgb(255,255,255)" stroke-linejoin="miter" stroke-linecap="square" stroke-miterlimit="2"/><path d=" M 614.641 522.007 L 614.641 595.571 L 614.641 595.571 Q 604.226 609.15 585.769 616.138 L 585.769 616.138 L 585.769 616.138 Q 567.312 623.125 543.845 623.125 L 543.845 623.125 L 543.845 623.125 Q 519.719 623.125 501.13 612.183 L 501.13 612.183 L 501.13 612.183 Q 482.541 601.24 472.456 580.872 L 472.456 580.872 L 472.456 580.872 Q 462.37 560.503 461.975 533.345 L 461.975 533.345 L 461.975 518.315 L 461.975 518.315 Q 461.975 474.81 482.805 450.354 L 482.805 450.354 L 482.805 450.354 Q 503.635 425.898 540.944 425.898 L 540.944 425.898 L 540.944 425.898 Q 572.98 425.898 591.833 441.719 L 591.833 441.719 L 591.833 441.719 Q 610.686 457.539 614.509 487.334 L 614.509 487.334 L 581.813 487.334 L 581.813 487.334 Q 576.276 452.661 541.604 452.661 L 541.604 452.661 L 541.604 452.661 Q 519.191 452.661 507.524 468.811 L 507.524 468.811 L 507.524 468.811 Q 495.856 484.961 495.461 516.206 L 495.461 516.206 L 495.461 530.972 L 495.461 530.972 Q 495.461 562.085 508.579 579.29 L 508.579 579.29 L 508.579 579.29 Q 521.696 596.494 545.031 596.494 L 545.031 596.494 L 545.031 596.494 Q 570.607 596.494 581.418 584.893 L 581.418 584.893 L 581.418 547.319 L 541.867 547.319 L 541.867 522.007 L 614.641 522.007 L 614.641 522.007 Z  M 803.693 428.535 L 803.693 620.488 L 770.471 620.488 L 770.471 535.19 L 684.646 535.19 L 684.646 620.488 L 651.291 620.488 L 651.291 428.535 L 684.646 428.535 L 684.646 508.428 L 770.471 508.428 L 770.471 428.535 L 803.693 428.535 L 803.693 428.535 Z  M 943.439 571.05 L 943.439 571.05 L 943.439 571.05 Q 943.439 558.394 934.541 551.538 L 934.541 551.538 L 934.541 551.538 Q 925.642 544.683 902.438 537.695 L 902.438 537.695 L 902.438 537.695 Q 879.235 530.708 865.524 522.139 L 865.524 522.139 L 865.524 522.139 Q 839.289 505.659 839.289 479.16 L 839.289 479.16 L 839.289 479.16 Q 839.289 455.957 858.208 440.928 L 858.208 440.928 L 858.208 440.928 Q 877.126 425.898 907.316 425.898 L 907.316 425.898 L 907.316 425.898 Q 927.355 425.898 943.044 433.281 L 943.044 433.281 L 943.044 433.281 Q 958.732 440.664 967.697 454.309 L 967.697 454.309 L 967.697 454.309 Q 976.662 467.954 976.662 484.565 L 976.662 484.565 L 943.439 484.565 L 943.439 484.565 Q 943.439 469.536 934.013 461.033 L 934.013 461.033 L 934.013 461.033 Q 924.587 452.529 907.053 452.529 L 907.053 452.529 L 907.053 452.529 Q 890.705 452.529 881.674 459.517 L 881.674 459.517 L 881.674 459.517 Q 872.644 466.504 872.644 479.028 L 872.644 479.028 L 872.644 479.028 Q 872.644 489.575 882.399 496.628 L 882.399 496.628 L 882.399 496.628 Q 892.155 503.682 914.567 510.339 L 914.567 510.339 L 914.567 510.339 Q 936.979 516.997 950.559 525.5 L 950.559 525.5 L 950.559 525.5 Q 964.138 534.004 970.466 545.012 L 970.466 545.012 L 970.466 545.012 Q 976.794 556.021 976.794 570.786 L 976.794 570.786 L 976.794 570.786 Q 976.794 594.78 958.403 608.953 L 958.403 608.953 L 958.403 608.953 Q 940.012 623.125 908.503 623.125 L 908.503 623.125 L 908.503 623.125 Q 887.673 623.125 870.205 615.413 L 870.205 615.413 L 870.205 615.413 Q 852.736 607.7 843.046 594.121 L 843.046 594.121 L 843.046 594.121 Q 833.356 580.542 833.356 562.48 L 833.356 562.48 L 866.711 562.48 L 866.711 562.48 Q 866.711 578.828 877.521 587.793 L 877.521 587.793 L 877.521 587.793 Q 888.332 596.758 908.503 596.758 L 908.503 596.758 L 908.503 596.758 Q 925.905 596.758 934.672 589.705 L 934.672 589.705 L 934.672 589.705 Q 943.439 582.651 943.439 571.05 Z " fill="rgb(255,255,255)"/><path d=" M 1585.194 151.184 L 1585.194 243.605 L 1569.135 243.605 L 1527.938 178.034 L 1527.938 243.605 L 1511.879 243.605 L 1511.879 151.184 L 1527.938 151.184 L 1569.262 217.009 L 1569.262 151.184 L 1585.194 151.184 L 1585.194 151.184 Z  M 1632.929 244.875 L 1632.929 244.875 L 1632.929 244.875 Q 1618.266 244.875 1609.157 235.639 L 1609.157 235.639 L 1609.157 235.639 Q 1600.048 226.403 1600.048 211.042 L 1600.048 211.042 L 1600.048 209.138 L 1600.048 209.138 Q 1600.048 198.854 1604.015 190.761 L 1604.015 190.761 L 1604.015 190.761 Q 1607.982 182.668 1615.155 178.161 L 1615.155 178.161 L 1615.155 178.161 Q 1622.328 173.654 1631.151 173.654 L 1631.151 173.654 L 1631.151 173.654 Q 1645.18 173.654 1652.829 182.604 L 1652.829 182.604 L 1652.829 182.604 Q 1660.478 191.555 1660.478 207.932 L 1660.478 207.932 L 1660.478 214.152 L 1615.6 214.152 L 1615.6 214.152 Q 1616.298 222.658 1621.281 227.609 L 1621.281 227.609 L 1621.281 227.609 Q 1626.264 232.561 1633.817 232.561 L 1633.817 232.561 L 1633.817 232.561 Q 1644.418 232.561 1651.083 223.991 L 1651.083 223.991 L 1659.398 231.926 L 1659.398 231.926 Q 1655.272 238.083 1648.385 241.479 L 1648.385 241.479 L 1648.385 241.479 Q 1641.498 244.875 1632.929 244.875 Z  M 1631.088 186.032 L 1631.088 186.032 L 1631.088 186.032 Q 1624.74 186.032 1620.836 190.476 L 1620.836 190.476 L 1620.836 190.476 Q 1616.933 194.919 1615.854 202.854 L 1615.854 202.854 L 1645.243 202.854 L 1645.243 201.711 L 1645.243 201.711 Q 1644.735 193.967 1641.117 190 L 1641.117 190 L 1641.117 190 Q 1637.499 186.032 1631.088 186.032 Z  M 1718.495 174.924 L 1732.777 222.341 L 1743.695 174.924 L 1758.739 174.924 L 1740.014 243.605 L 1727.318 243.605 L 1712.592 196.442 L 1698.119 243.605 L 1685.424 243.605 L 1666.635 174.924 L 1681.679 174.924 L 1692.787 221.833 L 1706.879 174.924 L 1718.495 174.924 L 1718.495 174.924 Z  M 1786.923 151.184 L 1785.399 216.374 L 1772.133 216.374 L 1770.673 151.184 L 1786.923 151.184 L 1786.923 151.184 Z  M 1770.229 236.306 L 1770.229 236.306 L 1770.229 236.306 Q 1770.229 232.687 1772.577 230.307 L 1772.577 230.307 L 1772.577 230.307 Q 1774.926 227.927 1778.988 227.927 L 1778.988 227.927 L 1778.988 227.927 Q 1783.051 227.927 1785.399 230.307 L 1785.399 230.307 L 1785.399 230.307 Q 1787.748 232.687 1787.748 236.306 L 1787.748 236.306 L 1787.748 236.306 Q 1787.748 239.797 1785.463 242.146 L 1785.463 242.146 L 1785.463 242.146 Q 1783.178 244.494 1778.988 244.494 L 1778.988 244.494 L 1778.988 244.494 Q 1774.799 244.494 1772.514 242.146 L 1772.514 242.146 L 1772.514 242.146 Q 1770.229 239.797 1770.229 236.306 Z " fill="rgb(255,255,255)"/><path d=" M 496.606 663.52 L 523.413 746.942 L 550.513 663.52 L 570.874 663.52 L 532.495 770.16 L 514.551 770.16 L 476.318 663.52 L 496.606 663.52 L 496.606 663.52 Z " fill="rgb(255,255,255)"/><path d=" M 1148.788 620.988 L 1128.881 567.199 L 1041.737 567.199 L 1021.962 620.988 L 1004.955 620.988 L 1077.597 429.035 L 1093.021 429.035 L 1165.663 620.988 L 1148.788 620.988 L 1148.788 620.988 Z  M 1085.243 448.811 L 1046.747 553.356 L 1123.739 553.356 L 1085.243 448.811 L 1085.243 448.811 Z  M 1304.882 548.874 L 1304.882 551.115 L 1304.882 551.115 Q 1304.882 584.47 1290.116 604.047 L 1290.116 604.047 L 1290.116 604.047 Q 1275.351 623.625 1250.565 623.625 L 1250.565 623.625 L 1250.565 623.625 Q 1221.298 623.625 1205.741 603.059 L 1205.741 603.059 L 1205.741 675.832 L 1190.053 675.832 L 1190.053 478.342 L 1204.687 478.342 L 1205.478 498.513 L 1205.478 498.513 Q 1220.902 475.705 1250.17 475.705 L 1250.17 475.705 L 1250.17 475.705 Q 1275.746 475.705 1290.314 495.085 L 1290.314 495.085 L 1290.314 495.085 Q 1304.882 514.465 1304.882 548.874 L 1304.882 548.874 L 1304.882 548.874 Z  M 1289.062 548.347 L 1289.062 548.347 L 1289.062 548.347 Q 1289.062 521.057 1277.855 505.236 L 1277.855 505.236 L 1277.855 505.236 Q 1266.649 489.416 1246.61 489.416 L 1246.61 489.416 L 1246.61 489.416 Q 1232.108 489.416 1221.693 496.403 L 1221.693 496.403 L 1221.693 496.403 Q 1211.278 503.391 1205.741 516.706 L 1205.741 516.706 L 1205.741 585.129 L 1205.741 585.129 Q 1211.41 597.39 1221.957 603.85 L 1221.957 603.85 L 1221.957 603.85 Q 1232.504 610.31 1246.874 610.31 L 1246.874 610.31 L 1246.874 610.31 Q 1266.781 610.31 1277.921 594.423 L 1277.921 594.423 L 1277.921 594.423 Q 1289.062 578.537 1289.062 548.347 Z  M 1454.516 548.874 L 1454.516 551.115 L 1454.516 551.115 Q 1454.516 584.47 1439.75 604.047 L 1439.75 604.047 L 1439.75 604.047 Q 1424.984 623.625 1400.199 623.625 L 1400.199 623.625 L 1400.199 623.625 Q 1370.932 623.625 1355.375 603.059 L 1355.375 603.059 L 1355.375 675.832 L 1339.687 675.832 L 1339.687 478.342 L 1354.32 478.342 L 1355.111 498.513 L 1355.111 498.513 Q 1370.536 475.705 1399.804 475.705 L 1399.804 475.705 L 1399.804 475.705 Q 1425.38 475.705 1439.948 495.085 L 1439.948 495.085 L 1439.948 495.085 Q 1454.516 514.465 1454.516 548.874 L 1454.516 548.874 L 1454.516 548.874 Z  M 1438.695 548.347 L 1438.695 548.347 L 1438.695 548.347 Q 1438.695 521.057 1427.489 505.236 L 1427.489 505.236 L 1427.489 505.236 Q 1416.283 489.416 1396.244 489.416 L 1396.244 489.416 L 1396.244 489.416 Q 1381.742 489.416 1371.327 496.403 L 1371.327 496.403 L 1371.327 496.403 Q 1360.912 503.391 1355.375 516.706 L 1355.375 516.706 L 1355.375 585.129 L 1355.375 585.129 Q 1361.044 597.39 1371.591 603.85 L 1371.591 603.85 L 1371.591 603.85 Q 1382.138 610.31 1396.508 610.31 L 1396.508 610.31 L 1396.508 610.31 Q 1416.415 610.31 1427.555 594.423 L 1427.555 594.423 L 1427.555 594.423 Q 1438.695 578.537 1438.695 548.347 Z " fill="rgb(255,255,255)"/><path d=" M 776.286 706.146 L 776.286 725.702 L 776.286 725.702 Q 776.286 748.261 768.01 759.943 L 768.01 759.943 L 768.01 759.943 Q 759.733 771.625 743.62 771.625 L 743.62 771.625 L 743.62 771.625 Q 727.8 771.625 719.377 760.163 L 719.377 760.163 L 719.377 760.163 Q 710.954 748.7 710.734 726.801 L 710.734 726.801 L 710.734 707.685 L 710.734 707.685 Q 710.734 685.199 719.084 673.627 L 719.084 673.627 L 719.084 673.627 Q 727.434 662.055 743.474 662.055 L 743.474 662.055 L 743.474 662.055 Q 759.294 662.055 767.644 673.224 L 767.644 673.224 L 767.644 673.224 Q 775.993 684.394 776.286 706.146 L 776.286 706.146 L 776.286 706.146 Z  M 767.497 727.094 L 767.497 706.586 L 767.497 706.586 Q 767.497 688.275 761.528 678.9 L 761.528 678.9 L 761.528 678.9 Q 755.559 669.525 743.474 669.525 L 743.474 669.525 L 743.474 669.525 Q 731.608 669.525 725.603 678.681 L 725.603 678.681 L 725.603 678.681 Q 719.597 687.836 719.45 705.707 L 719.45 705.707 L 719.45 726.654 L 719.45 726.654 Q 719.45 744.892 725.639 754.56 L 725.639 754.56 L 725.639 754.56 Q 731.828 764.228 743.62 764.228 L 743.62 764.228 L 743.62 764.228 Q 755.339 764.228 761.381 754.779 L 761.381 754.779 L 761.381 754.779 Q 767.424 745.331 767.497 727.094 L 767.497 727.094 L 767.497 727.094 Z  M 605.925 717.499 L 598.967 715.521 L 604.167 663.52 L 657.487 663.52 L 657.487 671.649 L 611.711 671.649 L 607.976 707.685 L 607.976 707.685 Q 616.545 701.825 628.044 701.825 L 628.044 701.825 L 628.044 701.825 Q 642.473 701.825 651.042 711.2 L 651.042 711.2 L 651.042 711.2 Q 659.611 720.575 659.611 736.176 L 659.611 736.176 L 659.611 736.176 Q 659.611 753.021 651.262 762.323 L 651.262 762.323 L 651.262 762.323 Q 642.912 771.625 627.751 771.625 L 627.751 771.625 L 627.751 771.625 Q 613.835 771.625 605.192 763.861 L 605.192 763.861 L 605.192 763.861 Q 596.55 756.098 595.305 742.108 L 595.305 742.108 L 603.728 742.108 L 603.728 742.108 Q 604.973 753.021 611.125 758.625 L 611.125 758.625 L 611.125 758.625 Q 617.277 764.228 627.751 764.228 L 627.751 764.228 L 627.751 764.228 Q 639.177 764.228 645 756.977 L 645 756.977 L 645 756.977 Q 650.822 749.726 650.822 736.322 L 650.822 736.322 L 650.822 736.322 Q 650.822 724.604 644.304 717.206 L 644.304 717.206 L 644.304 717.206 Q 637.785 709.809 626.506 709.809 L 626.506 709.809 L 626.506 709.809 Q 620.28 709.809 615.666 711.383 L 615.666 711.383 L 615.666 711.383 Q 611.052 712.958 605.925 717.499 L 605.925 717.499 L 605.925 717.499 Z  M 676.75 764.887 L 676.75 764.887 L 676.75 764.887 Q 676.75 762.323 678.398 760.529 L 678.398 760.529 L 678.398 760.529 Q 680.046 758.734 682.976 758.734 L 682.976 758.734 L 682.976 758.734 Q 685.905 758.734 687.59 760.529 L 687.59 760.529 L 687.59 760.529 Q 689.274 762.323 689.274 764.887 L 689.274 764.887 L 689.274 764.887 Q 689.274 767.45 687.59 769.098 L 687.59 769.098 L 687.59 769.098 Q 685.905 770.746 682.976 770.746 L 682.976 770.746 L 682.976 770.746 Q 680.046 770.746 678.398 769.098 L 678.398 769.098 L 678.398 769.098 Q 676.75 767.45 676.75 764.887 Z " fill="rgb(255,255,255)"/></g></svg>