<svg xmlns="http://www.w3.org/2000/svg" xmlns:xlink="http://www.w3.org/1999/xlink" width="65" height="55" viewBox="0 0 65 55"><defs><clipPath id="a"><rect width="65" height="55"/></clipPath><clipPath id="b"><rect width="65" height="55" fill="#fff"/></clipPath></defs><g opacity="0.9" clip-path="url(#a)" style="isolation:isolate"><g clip-path="url(#b)"><rect width="65" height="55" fill="none"/><path d="M14.88,40.293h1.131a3.973,3.973,0,0,1-.3,1.122h0a2.72,2.72,0,0,1-.624.9h0a2.842,2.842,0,0,1-.973.591h0a3.835,3.835,0,0,1-1.342.214h0a3.261,3.261,0,0,1-1.371-.281h0a2.976,2.976,0,0,1-1.052-.8h0a3.68,3.68,0,0,1-.673-1.245h0a5.2,5.2,0,0,1-.238-1.623h0v-.855h0a5.181,5.181,0,0,1,.24-1.626h0a3.653,3.653,0,0,1,.686-1.249h0a3.04,3.04,0,0,1,1.081-.8h0a3.463,3.463,0,0,1,1.427-.284h0a3.584,3.584,0,0,1,1.277.211h0a2.708,2.708,0,0,1,.946.588h0a2.8,2.8,0,0,1,.619.9h0a3.875,3.875,0,0,1,.293,1.157H14.88a3.9,3.9,0,0,0-.2-.8h0a1.8,1.8,0,0,0-.373-.609h0a1.564,1.564,0,0,0-.588-.387h0a2.359,2.359,0,0,0-.844-.135h0a2.164,2.164,0,0,0-1,.22h0a2.027,2.027,0,0,0-.721.615h0a2.793,2.793,0,0,0-.436.955h0a4.855,4.855,0,0,0-.147,1.234h0v.867h0a5.045,5.045,0,0,0,.132,1.178h0a3.068,3.068,0,0,0,.4.964h0a1.985,1.985,0,0,0,.686.65h0a1.955,1.955,0,0,0,.984.237h0a2.774,2.774,0,0,0,.908-.129h0A1.592,1.592,0,0,0,14.3,41.7h0a1.675,1.675,0,0,0,.378-.6h0a4.084,4.084,0,0,0,.2-.806ZM22.427,43H21.29a1.155,1.155,0,0,1-.094-.3h0q-.035-.179-.058-.372h0a2.99,2.99,0,0,1-.343.3h0a2.538,2.538,0,0,1-.416.252h0a2.416,2.416,0,0,1-.489.17h0a2.468,2.468,0,0,1-.557.061h0a2.534,2.534,0,0,1-.882-.146h0a2.069,2.069,0,0,1-.674-.4h0a1.756,1.756,0,0,1-.43-.594h0a1.786,1.786,0,0,1-.153-.736h0a1.947,1.947,0,0,1,.2-.9h0a1.8,1.8,0,0,1,.572-.654h0a2.705,2.705,0,0,1,.9-.4h0a4.751,4.751,0,0,1,1.178-.135H21.12v-.5h0a1.217,1.217,0,0,0-.34-.905h0a1.366,1.366,0,0,0-1-.337h0a1.789,1.789,0,0,0-.556.082h0a1.418,1.418,0,0,0-.431.22h0a1.007,1.007,0,0,0-.278.319h0a.78.78,0,0,0-.1.381h-1.09a1.414,1.414,0,0,1,.179-.674h0a1.975,1.975,0,0,1,.507-.6h0a2.674,2.674,0,0,1,.794-.434h0a3.061,3.061,0,0,1,1.04-.167h0a3.28,3.28,0,0,1,.952.132h0a2.044,2.044,0,0,1,.747.4h0a1.852,1.852,0,0,1,.486.665h0a2.293,2.293,0,0,1,.176.932h0v2.947h0a4.35,4.35,0,0,0,.056.677h0a2.508,2.508,0,0,0,.167.612h0V43Zm-2.936-.826h0a1.809,1.809,0,0,0,.551-.082h0a2.052,2.052,0,0,0,.469-.214h0a1.741,1.741,0,0,0,.366-.3h0a1.491,1.491,0,0,0,.243-.351h0v-1.3h-.9a2.911,2.911,0,0,0-1.436.29h0a.947.947,0,0,0-.5.876h0a1.2,1.2,0,0,0,.076.428h0a.9.9,0,0,0,.232.342h0a1.143,1.143,0,0,0,.381.229h0A1.479,1.479,0,0,0,19.491,42.174ZM25.081,34v9H24V34Zm4.365,9.117h0a3.032,3.032,0,0,1-1.2-.228h0a2.683,2.683,0,0,1-.917-.636h0a2.8,2.8,0,0,1-.586-.97h0a3.564,3.564,0,0,1-.2-1.23h0v-.246h0a3.879,3.879,0,0,1,.231-1.383h0A3.107,3.107,0,0,1,27.39,37.4h0a2.657,2.657,0,0,1,.884-.635h0a2.539,2.539,0,0,1,1.037-.22h0a2.677,2.677,0,0,1,1.172.237h0a2.235,2.235,0,0,1,.812.654h0a2.776,2.776,0,0,1,.471.984h0a4.741,4.741,0,0,1,.153,1.236h0v.487h-4.3a2.738,2.738,0,0,0,.143.82h0a2,2,0,0,0,.375.662h0a1.8,1.8,0,0,0,.586.445h0a1.779,1.779,0,0,0,.777.164h0A1.888,1.888,0,0,0,30.477,42h0a2.436,2.436,0,0,0,.7-.621h0l.662.516h0a2.971,2.971,0,0,1-.369.454h0a2.543,2.543,0,0,1-.507.392h0a2.675,2.675,0,0,1-.665.276h0A3.243,3.243,0,0,1,29.446,43.117Zm-.135-5.683h0a1.491,1.491,0,0,0-.6.12h0a1.494,1.494,0,0,0-.492.348h0a1.887,1.887,0,0,0-.361.569h0a2.9,2.9,0,0,0-.2.779h3.176v-.082h0a3.025,3.025,0,0,0-.1-.627h0a1.71,1.71,0,0,0-.263-.557h0a1.359,1.359,0,0,0-.46-.4h0A1.457,1.457,0,0,0,29.311,37.434Zm3.862-.774H34.2l.035.8h0a2.447,2.447,0,0,1,.821-.671h0a2.353,2.353,0,0,1,1.078-.243h0a2.621,2.621,0,0,1,.838.126h0a1.537,1.537,0,0,1,.638.4h0a1.88,1.88,0,0,1,.408.715h0a3.427,3.427,0,0,1,.143,1.058h0V43H37.075V38.834h0a2.118,2.118,0,0,0-.082-.63h0a1.039,1.039,0,0,0-.243-.425h0a.956.956,0,0,0-.4-.24h0a1.792,1.792,0,0,0-.547-.076h0a1.565,1.565,0,0,0-.926.281h0a1.9,1.9,0,0,0-.621.738h0V43H33.173V36.66ZM39.53,39.9v-.123h0a4.575,4.575,0,0,1,.179-1.321h0a3.112,3.112,0,0,1,.507-1.019h0a2.321,2.321,0,0,1,.788-.66h0a2.234,2.234,0,0,1,1.028-.234h0a2.444,2.444,0,0,1,1.014.2h0a2.157,2.157,0,0,1,.75.566h0V34H44.88v9h-1l-.053-.68h0a2.111,2.111,0,0,1-.762.592h0a2.487,2.487,0,0,1-1.049.205h0A2.163,2.163,0,0,1,41,42.877h0a2.347,2.347,0,0,1-.788-.671h0a3.208,3.208,0,0,1-.507-1.019h0A4.409,4.409,0,0,1,39.53,39.9Zm1.084-.123V39.9h0a3.956,3.956,0,0,0,.1.894h0a2.187,2.187,0,0,0,.3.729h0a1.534,1.534,0,0,0,.521.493h0a1.5,1.5,0,0,0,.756.181h0a1.837,1.837,0,0,0,.516-.067h0a1.492,1.492,0,0,0,.413-.191h0a1.575,1.575,0,0,0,.328-.293h0a1.981,1.981,0,0,0,.249-.375h0V38.359h0A2.12,2.12,0,0,0,43.55,38h0a1.513,1.513,0,0,0-.326-.284h0a1.568,1.568,0,0,0-.413-.188h0a1.8,1.8,0,0,0-.509-.067h0a1.506,1.506,0,0,0-.765.184h0a1.537,1.537,0,0,0-.524.5h0a2.268,2.268,0,0,0-.3.736h0a3.951,3.951,0,0,0-.1.893Zm11,3.223H50.475a1.184,1.184,0,0,1-.093-.3h0q-.035-.179-.059-.372h0a2.881,2.881,0,0,1-.343.3h0a2.483,2.483,0,0,1-.416.252h0a2.388,2.388,0,0,1-.489.17h0a2.468,2.468,0,0,1-.557.061h0a2.526,2.526,0,0,1-.881-.146h0a2.055,2.055,0,0,1-.674-.4h0a1.75,1.75,0,0,1-.431-.594h0a1.8,1.8,0,0,1-.152-.736h0a1.947,1.947,0,0,1,.2-.9h0a1.794,1.794,0,0,1,.571-.654h0a2.7,2.7,0,0,1,.9-.4h0a4.746,4.746,0,0,1,1.177-.135h1.079v-.5h0a1.217,1.217,0,0,0-.34-.905h0a1.366,1.366,0,0,0-1-.337h0a1.793,1.793,0,0,0-.557.082h0a1.418,1.418,0,0,0-.431.22h0a1.024,1.024,0,0,0-.278.319h0a.787.787,0,0,0-.1.381h-1.09a1.42,1.42,0,0,1,.178-.674h0a1.975,1.975,0,0,1,.507-.6h0a2.674,2.674,0,0,1,.794-.434h0a3.066,3.066,0,0,1,1.04-.167h0a3.273,3.273,0,0,1,.952.132h0a2.033,2.033,0,0,1,.747.4h0a1.846,1.846,0,0,1,.487.665h0a2.293,2.293,0,0,1,.176.932h0v2.947h0a4.427,4.427,0,0,0,.055.677h0a2.569,2.569,0,0,0,.167.612h0V43Zm-2.935-.826h0a1.8,1.8,0,0,0,.55-.082h0a2.052,2.052,0,0,0,.469-.214h0a1.741,1.741,0,0,0,.366-.3h0a1.477,1.477,0,0,0,.244-.351h0v-1.3h-.9a2.909,2.909,0,0,0-1.435.29h0a.947.947,0,0,0-.5.876h0a1.2,1.2,0,0,0,.076.428h0a.892.892,0,0,0,.231.342h0a1.157,1.157,0,0,0,.381.229h0A1.487,1.487,0,0,0,48.677,42.174Zm7.476-5.549v1.008h0a2.546,2.546,0,0,0-.261-.032h0q-.12-.009-.272-.009h0a1.573,1.573,0,0,0-.917.246h0a1.5,1.5,0,0,0-.53.662h0V43H53.089V36.66h1.054l.018.733h0a1.911,1.911,0,0,1,.615-.622h0a1.674,1.674,0,0,1,.9-.228h0a1.617,1.617,0,0,1,.269.026h0a.87.87,0,0,1,.211.056Z" fill="#012395" fill-rule="evenodd"/><path d="M41,11H40V9H38v2H28V9H26v2H25a2.006,2.006,0,0,0-2,2V29a2.006,2.006,0,0,0,2,2H41a2.006,2.006,0,0,0,2-2V13a2.006,2.006,0,0,0-2-2Zm0,18H25V16H41Z" fill="#012395"/><path d="M21,8H45V32H21Z" fill="none"/><rect width="2" height="2" transform="translate(27 18)" fill="#012395"/><rect width="2" height="2" transform="translate(32 18)" fill="#012395"/><rect width="2" height="2" transform="translate(37 18)" fill="#012395"/></g></g></svg>