<svg xmlns="http://www.w3.org/2000/svg" xmlns:xlink="http://www.w3.org/1999/xlink" width="65" height="55" viewBox="0 0 65 55"><defs><clipPath id="a"><rect width="65" height="55"/></clipPath><clipPath id="b"><rect width="65" height="55" fill="#fff"/></clipPath></defs><g opacity="0.9" clip-path="url(#a)" style="isolation:isolate"><g clip-path="url(#b)"><rect width="65" height="55" fill="none"/><path d="M20.869,38.752v3.129h0a2.9,2.9,0,0,1-.34.39h0a2.454,2.454,0,0,1-.571.4h0a3.919,3.919,0,0,1-.87.316h0a5.159,5.159,0,0,1-1.237.129h0a3.653,3.653,0,0,1-1.432-.275h0a3.176,3.176,0,0,1-1.125-.794h0a3.654,3.654,0,0,1-.735-1.272h0a5.145,5.145,0,0,1-.264-1.708h0V38.4h0a5.934,5.934,0,0,1,.225-1.705h0a3.539,3.539,0,0,1,.663-1.271h0a2.844,2.844,0,0,1,1.075-.8h0a3.671,3.671,0,0,1,1.465-.275h0a3.825,3.825,0,0,1,1.283.2h0a2.754,2.754,0,0,1,.937.545h0a2.613,2.613,0,0,1,.616.829h0a3.64,3.64,0,0,1,.31,1.049H19.744a2.869,2.869,0,0,0-.2-.654h0a1.728,1.728,0,0,0-.378-.539h0a1.739,1.739,0,0,0-.592-.366h0a2.354,2.354,0,0,0-.844-.135h0a2.281,2.281,0,0,0-1.031.217h0a1.9,1.9,0,0,0-.715.621h0a2.883,2.883,0,0,0-.419.979h0a5.594,5.594,0,0,0-.137,1.295h0v.679h0a4.566,4.566,0,0,0,.175,1.319h0a2.943,2.943,0,0,0,.5.984h0a2.118,2.118,0,0,0,.767.615h0a2.3,2.3,0,0,0,.993.211h0a4.225,4.225,0,0,0,.777-.061h0a2.847,2.847,0,0,0,.539-.153h0a1.427,1.427,0,0,0,.354-.2h0a2.129,2.129,0,0,0,.223-.2h0V39.666H17.775v-.914Zm4.77-2.127v1.008h0a2.591,2.591,0,0,0-.261-.032h0q-.12-.009-.273-.009h0a1.576,1.576,0,0,0-.917.246h0a1.5,1.5,0,0,0-.53.662h0V43H22.574V36.66h1.055l.017.733h0a1.908,1.908,0,0,1,.616-.622h0a1.672,1.672,0,0,1,.9-.228h0a1.635,1.635,0,0,1,.27.026h0a.889.889,0,0,1,.211.056ZM31.685,43H30.549a1.155,1.155,0,0,1-.094-.3h0q-.035-.179-.059-.372h0a2.923,2.923,0,0,1-.342.3h0a2.538,2.538,0,0,1-.416.252h0a2.412,2.412,0,0,1-.49.17h0a2.455,2.455,0,0,1-.556.061h0a2.529,2.529,0,0,1-.882-.146h0a2.055,2.055,0,0,1-.674-.4h0a1.768,1.768,0,0,1-.431-.594h0a1.8,1.8,0,0,1-.152-.736h0a1.947,1.947,0,0,1,.2-.9h0a1.791,1.791,0,0,1,.572-.654h0a2.705,2.705,0,0,1,.9-.4h0a4.751,4.751,0,0,1,1.178-.135h1.078v-.5h0a1.217,1.217,0,0,0-.34-.905h0a1.366,1.366,0,0,0-1-.337h0a1.793,1.793,0,0,0-.557.082h0a1.4,1.4,0,0,0-.43.22h0a1.019,1.019,0,0,0-.279.319h0a.787.787,0,0,0-.1.381h-1.09a1.414,1.414,0,0,1,.179-.674h0a1.961,1.961,0,0,1,.506-.6h0a2.691,2.691,0,0,1,.794-.434h0a3.066,3.066,0,0,1,1.04-.167h0a3.283,3.283,0,0,1,.953.132h0a2.044,2.044,0,0,1,.747.4h0a1.852,1.852,0,0,1,.486.665h0a2.293,2.293,0,0,1,.176.932h0v2.947h0a4.427,4.427,0,0,0,.055.677h0a2.569,2.569,0,0,0,.167.612h0V43Zm-2.935-.826h0a1.809,1.809,0,0,0,.551-.082h0a2.031,2.031,0,0,0,.468-.214h0a1.764,1.764,0,0,0,.367-.3h0a1.491,1.491,0,0,0,.243-.351h0v-1.3h-.9a2.909,2.909,0,0,0-1.435.29h0a.947.947,0,0,0-.5.876h0a1.2,1.2,0,0,0,.076.428h0a.887.887,0,0,0,.232.342h0a1.143,1.143,0,0,0,.381.229h0A1.479,1.479,0,0,0,28.75,42.174ZM32.9,39.9v-.123h0a4.575,4.575,0,0,1,.179-1.321h0a3.112,3.112,0,0,1,.507-1.019h0a2.321,2.321,0,0,1,.788-.66h0a2.234,2.234,0,0,1,1.028-.234h0a2.444,2.444,0,0,1,1.014.2h0a2.145,2.145,0,0,1,.75.566h0V34h1.084v9h-1l-.053-.68h0a2.111,2.111,0,0,1-.762.592h0a2.485,2.485,0,0,1-1.048.205h0a2.165,2.165,0,0,1-1.017-.24h0a2.347,2.347,0,0,1-.788-.671h0a3.208,3.208,0,0,1-.507-1.019h0A4.409,4.409,0,0,1,32.9,39.9Zm1.084-.123V39.9h0a3.956,3.956,0,0,0,.1.894h0a2.215,2.215,0,0,0,.3.729h0a1.534,1.534,0,0,0,.521.493h0a1.5,1.5,0,0,0,.756.181h0a1.837,1.837,0,0,0,.516-.067h0a1.492,1.492,0,0,0,.413-.191h0a1.575,1.575,0,0,0,.328-.293h0a1.92,1.92,0,0,0,.249-.375h0V38.359h0A2.045,2.045,0,0,0,36.918,38h0a1.524,1.524,0,0,0-.325-.284h0a1.588,1.588,0,0,0-.413-.188h0a1.813,1.813,0,0,0-.51-.067h0a1.51,1.51,0,0,0-.765.184h0a1.537,1.537,0,0,0-.524.5h0a2.3,2.3,0,0,0-.3.736h0a3.951,3.951,0,0,0-.1.893Zm8.578,3.34h0a3.032,3.032,0,0,1-1.2-.228h0a2.683,2.683,0,0,1-.917-.636h0a2.8,2.8,0,0,1-.586-.97h0a3.564,3.564,0,0,1-.205-1.23h0v-.246h0a3.864,3.864,0,0,1,.232-1.383h0A3.094,3.094,0,0,1,40.5,37.4h0a2.667,2.667,0,0,1,.885-.635h0a2.539,2.539,0,0,1,1.037-.22h0a2.681,2.681,0,0,1,1.172.237h0a2.226,2.226,0,0,1,.811.654h0a2.789,2.789,0,0,1,.472.984h0a4.77,4.77,0,0,1,.152,1.236h0v.487h-4.3a2.718,2.718,0,0,0,.144.82h0a2,2,0,0,0,.375.662h0a1.781,1.781,0,0,0,.586.445h0a1.773,1.773,0,0,0,.776.164h0A1.893,1.893,0,0,0,43.592,42h0a2.441,2.441,0,0,0,.7-.621h0l.662.516h0a2.893,2.893,0,0,1-.369.454h0a2.543,2.543,0,0,1-.507.392h0a2.674,2.674,0,0,1-.665.276h0A3.243,3.243,0,0,1,42.56,43.117Zm-.134-5.683h0a1.5,1.5,0,0,0-.6.12h0a1.507,1.507,0,0,0-.492.348h0a1.872,1.872,0,0,0-.36.569h0a2.878,2.878,0,0,0-.2.779h3.176v-.082h0a2.979,2.979,0,0,0-.1-.627h0a1.7,1.7,0,0,0-.264-.557h0a1.359,1.359,0,0,0-.46-.4h0A1.451,1.451,0,0,0,42.426,37.434Zm7.552,3.884h0a1.04,1.04,0,0,0-.052-.331h0a.7.7,0,0,0-.208-.293h0a1.59,1.59,0,0,0-.443-.255h0a4.547,4.547,0,0,0-.756-.216h0a7.269,7.269,0,0,1-.949-.264h0a2.894,2.894,0,0,1-.718-.366h0a1.522,1.522,0,0,1-.454-.507h0a1.424,1.424,0,0,1-.158-.686h0a1.583,1.583,0,0,1,.167-.712h0a1.825,1.825,0,0,1,.472-.591h0a2.322,2.322,0,0,1,.738-.4h0a2.964,2.964,0,0,1,.967-.149h0A3.107,3.107,0,0,1,49.6,36.7h0a2.327,2.327,0,0,1,.761.425h0a1.82,1.82,0,0,1,.478.63h0a1.835,1.835,0,0,1,.164.77h-1.09a.944.944,0,0,0-.088-.389h0a1.072,1.072,0,0,0-.258-.352h0a1.339,1.339,0,0,0-.416-.252h0a1.555,1.555,0,0,0-.568-.1h0a1.839,1.839,0,0,0-.577.079h0a1.13,1.13,0,0,0-.39.211h0a.812.812,0,0,0-.223.3h0a.879.879,0,0,0-.07.343h0a.814.814,0,0,0,.059.317h0a.6.6,0,0,0,.222.255h0a1.808,1.808,0,0,0,.449.21h0a7.1,7.1,0,0,0,.735.2h0a7.23,7.23,0,0,1,1.008.3h0a2.74,2.74,0,0,1,.709.4h0a1.469,1.469,0,0,1,.419.519h0a1.583,1.583,0,0,1,.137.679h0A1.688,1.688,0,0,1,50.89,42h0a1.686,1.686,0,0,1-.5.592h0a2.418,2.418,0,0,1-.773.383h0a3.416,3.416,0,0,1-1,.138h0a3.252,3.252,0,0,1-1.116-.176h0a2.487,2.487,0,0,1-.812-.465h0a1.973,1.973,0,0,1-.5-.663h0a1.82,1.82,0,0,1-.17-.764h1.084a1.141,1.141,0,0,0,.161.559h0a1.2,1.2,0,0,0,.361.367h0a1.477,1.477,0,0,0,.474.2h0a2.346,2.346,0,0,0,.516.058h0a2.2,2.2,0,0,0,.586-.07h0a1.353,1.353,0,0,0,.425-.193h0a.833.833,0,0,0,.261-.29h0A.77.77,0,0,0,49.978,41.318Z" fill="#012395" fill-rule="evenodd"/><path d="M21,9H45V33H21Z" fill="none"/><path d="M20,8H44V32H20Z" fill="none"/><path d="M32,11,21,17l4,2.18v6L32,29l7-3.82v-6l2-1.09V25h2V17Zm6.82,6L32,20.72,25.18,17,32,13.28ZM37,23.99l-5,2.73-5-2.73V20.27L32,23l5-2.73Z" fill="#012395"/></g></g></svg>