<svg xmlns="http://www.w3.org/2000/svg" xmlns:xlink="http://www.w3.org/1999/xlink" width="65" height="55" viewBox="0 0 65 55"><defs><clipPath id="a"><rect width="65" height="55"/></clipPath><clipPath id="b"><rect width="65" height="55" fill="#fff"/></clipPath></defs><g clip-path="url(#a)"><g clip-path="url(#b)"><rect width="65" height="55" fill="none"/><path d="M23.547,34.469V43H22.416V39.057h-4.3V43H16.99V34.469h1.125v3.668h4.3V34.469ZM25.088,39.9v-.129h0a3.921,3.921,0,0,1,.2-1.28h0a3.085,3.085,0,0,1,.574-1.022h0a2.622,2.622,0,0,1,.906-.68h0a2.819,2.819,0,0,1,1.195-.246h0a2.869,2.869,0,0,1,1.21.246h0a2.647,2.647,0,0,1,.911.68h0a3.016,3.016,0,0,1,.574,1.022h0a3.976,3.976,0,0,1,.2,1.28h0V39.9h0a3.979,3.979,0,0,1-.2,1.281h0a2.983,2.983,0,0,1-.574,1.019h0a2.639,2.639,0,0,1-.908.674h0a2.863,2.863,0,0,1-1.2.243h0a2.87,2.87,0,0,1-1.2-.243h0a2.639,2.639,0,0,1-.908-.674h0a3.023,3.023,0,0,1-.577-1.019h0a3.925,3.925,0,0,1-.2-1.281Zm1.09-.129V39.9h0a3.514,3.514,0,0,0,.111.9h0a2.266,2.266,0,0,0,.337.741h0a1.7,1.7,0,0,0,.562.507h0a1.6,1.6,0,0,0,.789.187h0a1.6,1.6,0,0,0,.785-.187h0a1.647,1.647,0,0,0,.562-.507h0a2.351,2.351,0,0,0,.337-.741h0a3.427,3.427,0,0,0,.114-.9h0v-.129h0a3.433,3.433,0,0,0-.114-.893h0a2.309,2.309,0,0,0-.34-.744h0a1.691,1.691,0,0,0-.565-.51h0a1.6,1.6,0,0,0-.791-.19h0a1.548,1.548,0,0,0-.779.19h0a1.72,1.72,0,0,0-.56.51h0a2.263,2.263,0,0,0-.337.744h0a3.52,3.52,0,0,0-.111.893Zm6.035-3.111h1.025l.03.7h0a2.307,2.307,0,0,1,.794-.6h0a2.544,2.544,0,0,1,1.086-.217h0a2.338,2.338,0,0,1,1.087.243h0a1.613,1.613,0,0,1,.724.777h0a2.391,2.391,0,0,1,.823-.739h0a2.433,2.433,0,0,1,1.2-.281h0a2.833,2.833,0,0,1,.9.132h0a1.641,1.641,0,0,1,.665.413h0a1.815,1.815,0,0,1,.413.715h0a3.345,3.345,0,0,1,.141,1.031h0V43H40.018V38.828h0a1.939,1.939,0,0,0-.1-.662h0a1.033,1.033,0,0,0-.273-.422h0a.971.971,0,0,0-.427-.22h0a2.368,2.368,0,0,0-.557-.061h0a1.561,1.561,0,0,0-.592.1h0a1.375,1.375,0,0,0-.442.285h0a1.323,1.323,0,0,0-.293.421h0a1.74,1.74,0,0,0-.138.519h0V43h-1.09V38.834h0a1.831,1.831,0,0,0-.1-.63h0a1.086,1.086,0,0,0-.273-.425h0a1.072,1.072,0,0,0-.425-.24h0a1.912,1.912,0,0,0-.559-.076h0a1.568,1.568,0,0,0-.932.252h0a1.557,1.557,0,0,0-.527.656h0V43H32.213V36.66Zm13.154,6.457h0a3.032,3.032,0,0,1-1.2-.228h0a2.683,2.683,0,0,1-.917-.636h0a2.8,2.8,0,0,1-.586-.97h0a3.564,3.564,0,0,1-.205-1.23h0v-.246h0a3.879,3.879,0,0,1,.231-1.383h0a3.107,3.107,0,0,1,.619-1.026h0a2.656,2.656,0,0,1,.884-.635h0a2.539,2.539,0,0,1,1.037-.22h0a2.677,2.677,0,0,1,1.172.237h0a2.235,2.235,0,0,1,.812.654h0a2.776,2.776,0,0,1,.471.984h0a4.741,4.741,0,0,1,.153,1.236h0v.487h-4.3a2.738,2.738,0,0,0,.143.82h0a2,2,0,0,0,.375.662h0a1.8,1.8,0,0,0,.586.445h0a1.779,1.779,0,0,0,.777.164h0A1.888,1.888,0,0,0,46.4,42h0a2.436,2.436,0,0,0,.7-.621h0l.662.516h0a2.971,2.971,0,0,1-.369.454h0a2.543,2.543,0,0,1-.507.392h0a2.674,2.674,0,0,1-.665.276h0A3.243,3.243,0,0,1,45.367,43.117Zm-.135-5.683h0a1.491,1.491,0,0,0-.6.12h0a1.507,1.507,0,0,0-.492.348h0a1.887,1.887,0,0,0-.361.569h0a2.9,2.9,0,0,0-.2.779h3.176v-.082h0a3.025,3.025,0,0,0-.1-.627h0a1.71,1.71,0,0,0-.263-.557h0a1.359,1.359,0,0,0-.46-.4h0A1.457,1.457,0,0,0,45.232,37.434Z" fill="#012395" fill-rule="evenodd"/><path d="M20,9H44V33H20Z" fill="none"/><path d="M32,14.69l5,4.5V27H35V21H29v6H27V19.19ZM32,12,22,21h3v8h6V23h2v6h6V21h3Z" fill="#012395"/></g></g></svg>