<svg xmlns="http://www.w3.org/2000/svg" xmlns:xlink="http://www.w3.org/1999/xlink" width="65" height="55" viewBox="0 0 65 55">
  <defs>
    <clipPath id="clip-path">
      <rect id="Rectangle_62" data-name="Rectangle 62" width="65" height="55"/>
    </clipPath>
    <clipPath id="clip-path-2">
      <rect id="Rectangle_61" data-name="Rectangle 61" width="65" height="55" fill="#010101"/>
    </clipPath>
  </defs>
  <g id="media" opacity="0.9" clip-path="url(#clip-path)" style="isolation: isolate">
    <g id="Group_13" data-name="Group 13" clip-path="url(#clip-path-2)">
      <path id="Path_53" data-name="Path 53" d="M14.923,4.469l2.789,6.961L20.5,4.469H21.96V13H20.835V9.678l.105-3.586L18.14,13h-.861L14.483,6.109l.111,3.568V13H13.47V4.469Zm11.484,8.648a2.77,2.77,0,0,1-2.1-.847,3.142,3.142,0,0,1-.809-2.265v-.2a3.8,3.8,0,0,1,.36-1.685,2.811,2.811,0,0,1,1.008-1.16,2.534,2.534,0,0,1,1.4-.419,2.374,2.374,0,0,1,1.922.814,3.526,3.526,0,0,1,.686,2.332v.451H24.585a2.254,2.254,0,0,0,.548,1.515,1.722,1.722,0,0,0,1.333.577A1.888,1.888,0,0,0,27.438,12a2.444,2.444,0,0,0,.7-.621l.662.516A2.662,2.662,0,0,1,26.407,13.117Zm-.135-5.684a1.446,1.446,0,0,0-1.1.478A2.321,2.321,0,0,0,24.62,9.25H27.8V9.168a2.065,2.065,0,0,0-.445-1.28A1.361,1.361,0,0,0,26.272,7.434Zm3.6,2.344a3.714,3.714,0,0,1,.691-2.347A2.352,2.352,0,0,1,34.136,7.3V4H35.22v9h-1l-.053-.68a2.208,2.208,0,0,1-1.811.8,2.165,2.165,0,0,1-1.8-.9,3.756,3.756,0,0,1-.694-2.355Zm1.084.123a2.812,2.812,0,0,0,.445,1.688,1.44,1.44,0,0,0,1.23.609,1.581,1.581,0,0,0,1.506-.926V8.359a1.593,1.593,0,0,0-1.494-.9,1.446,1.446,0,0,0-1.242.615A3.1,3.1,0,0,0,30.954,9.9ZM38.079,13H37V6.66h1.084ZM36.907,4.979a.647.647,0,0,1,.161-.445.6.6,0,0,1,.478-.182.614.614,0,0,1,.48.182.64.64,0,0,1,.164.445.619.619,0,0,1-.164.439.626.626,0,0,1-.48.176.616.616,0,0,1-.478-.176A.626.626,0,0,1,36.907,4.979ZM43.728,13a2.277,2.277,0,0,1-.152-.668,2.419,2.419,0,0,1-1.8.785,2.238,2.238,0,0,1-1.538-.53,1.716,1.716,0,0,1-.6-1.345A1.792,1.792,0,0,1,40.385,9.7,3.55,3.55,0,0,1,42.5,9.156h1.055v-.5a1.217,1.217,0,0,0-.34-.905,1.366,1.366,0,0,0-1-.337,1.581,1.581,0,0,0-.973.293.863.863,0,0,0-.393.709h-1.09A1.5,1.5,0,0,1,40.1,7.5a2.3,2.3,0,0,1,.914-.7,3.075,3.075,0,0,1,1.269-.258A2.506,2.506,0,0,1,44,7.091,1.976,1.976,0,0,1,44.642,8.6v2.918a3.567,3.567,0,0,0,.223,1.389V13Zm-1.8-.826a1.905,1.905,0,0,0,.967-.264,1.6,1.6,0,0,0,.662-.686v-1.3h-.85q-1.992,0-1.992,1.166a.987.987,0,0,0,.34.8A1.306,1.306,0,0,0,41.929,12.174Z" transform="translate(4 30)" fill="#012395"/>
      <g id="play_circle_outline-24px" transform="translate(21 8)">
        <path id="Path_51" data-name="Path 51" d="M0,0H24V24H0Z" fill="none"/>
        <path id="Path_52" data-name="Path 52" d="M10,16.5,16,12,10,7.5ZM12,2A10,10,0,1,0,22,12,10,10,0,0,0,12,2Zm0,18a8,8,0,1,1,8-8A8.011,8.011,0,0,1,12,20Z" fill="#012395"/>
      </g>
    </g>
  </g>
</svg>
