<svg xmlns="http://www.w3.org/2000/svg" xmlns:xlink="http://www.w3.org/1999/xlink" width="65" height="55" viewBox="0 0 65 55"><defs><clipPath id="a"><rect width="65" height="55"/></clipPath><clipPath id="b"><rect width="65" height="55" fill="#fff"/></clipPath></defs><g opacity="0.9" clip-path="url(#a)" style="isolation:isolate"><g clip-path="url(#b)"><rect width="65" height="55" fill="none"/><path d="M20.492,34.469h1.453l2.789,6.961,2.789-6.961h1.459V43H27.857V39.678l.106-3.586L25.162,43H24.3l-2.8-6.891.111,3.569V43H20.492V34.469ZM33.43,43.117h0a3.039,3.039,0,0,1-1.2-.228h0a2.683,2.683,0,0,1-.917-.636h0a2.812,2.812,0,0,1-.585-.97h0a3.549,3.549,0,0,1-.206-1.23h0v-.246h0a3.864,3.864,0,0,1,.232-1.383h0a3.094,3.094,0,0,1,.618-1.026h0a2.667,2.667,0,0,1,.885-.635h0a2.539,2.539,0,0,1,1.037-.22h0a2.677,2.677,0,0,1,1.172.237h0a2.226,2.226,0,0,1,.811.654h0a2.766,2.766,0,0,1,.472.984h0a4.77,4.77,0,0,1,.152,1.236h0v.487h-4.3a2.718,2.718,0,0,0,.144.82h0a2,2,0,0,0,.375.662h0a1.781,1.781,0,0,0,.586.445h0a1.777,1.777,0,0,0,.776.164h0A1.89,1.89,0,0,0,34.461,42h0a2.441,2.441,0,0,0,.7-.621h0l.662.516h0a2.893,2.893,0,0,1-.369.454h0a2.543,2.543,0,0,1-.507.392h0a2.674,2.674,0,0,1-.665.276h0A3.239,3.239,0,0,1,33.43,43.117Zm-.135-5.683h0a1.5,1.5,0,0,0-.6.12h0a1.507,1.507,0,0,0-.492.348h0a1.872,1.872,0,0,0-.36.569h0a2.854,2.854,0,0,0-.2.779h3.175v-.082h0a2.979,2.979,0,0,0-.1-.627h0a1.7,1.7,0,0,0-.264-.557h0a1.359,1.359,0,0,0-.46-.4h0A1.451,1.451,0,0,0,33.295,37.434Zm3.861-.774h1.026l.035.8h0a2.45,2.45,0,0,1,.82-.671h0a2.357,2.357,0,0,1,1.078-.243h0a2.621,2.621,0,0,1,.838.126h0a1.545,1.545,0,0,1,.639.4h0a1.87,1.87,0,0,1,.407.715h0a3.4,3.4,0,0,1,.144,1.058h0V43H41.059V38.834h0a2.119,2.119,0,0,0-.082-.63h0a1.033,1.033,0,0,0-.244-.425h0a.956.956,0,0,0-.4-.24h0a1.8,1.8,0,0,0-.548-.076h0a1.567,1.567,0,0,0-.926.281h0a1.912,1.912,0,0,0-.621.738h0V43H37.156V36.66ZM47.715,43l-.024-.627h0a2.008,2.008,0,0,1-.755.548h0a2.789,2.789,0,0,1-1.1.2h0a2.584,2.584,0,0,1-.85-.132h0a1.647,1.647,0,0,1-.656-.416h0a1.9,1.9,0,0,1-.425-.732h0a3.447,3.447,0,0,1-.149-1.081h0v-4.1h1.084v4.108h0a2.12,2.12,0,0,0,.1.706h0a1.14,1.14,0,0,0,.263.439h0a.886.886,0,0,0,.375.223h0a1.555,1.555,0,0,0,.434.061h0a1.977,1.977,0,0,0,1.063-.252h0a1.5,1.5,0,0,0,.589-.674h0V36.66h1.084V43Z" fill="#012395" fill-rule="evenodd"/><path d="M32,17H30V10H28v7H26V10H24v7a3.986,3.986,0,0,0,3.75,3.97V30h2.5V20.97A3.986,3.986,0,0,0,34,17V10H32Zm5-3v8h2.5v8H42V10C39.24,10,37,12.24,37,14Z" fill="#012395"/><path d="M21,8H45V32H21Z" fill="none"/></g></g></svg>