<svg xmlns="http://www.w3.org/2000/svg" xmlns:xlink="http://www.w3.org/1999/xlink" width="50" height="50" viewBox="0 0 50 50"><defs><clipPath id="b"><rect width="50" height="50"/></clipPath></defs><g id="a" clip-path="url(#b)"><rect width="50" height="50" fill="rgba(255,255,255,0)"/><g transform="translate(6 6)"><path d="M0,0H37.793V37.793H0Z" fill="none"/><path d="M19.322,9.874H16.172v6.3h-6.3v3.149h6.3v6.3h3.149v-6.3h6.3V16.172h-6.3ZM17.747,2A15.747,15.747,0,1,0,33.494,17.747,15.753,15.753,0,0,0,17.747,2Zm0,28.345a12.6,12.6,0,1,1,12.6-12.6A12.614,12.614,0,0,1,17.747,30.345Z" transform="translate(1.149 1.149)" fill="#fff"/></g></g></svg>