<svg xmlns="http://www.w3.org/2000/svg" xmlns:xlink="http://www.w3.org/1999/xlink" width="49" height="23" viewBox="0 0 49 23">
  <defs>
    <clipPath id="clip-close">
      <rect width="49" height="23"/>
    </clipPath>
  </defs>
  <g id="close" clip-path="url(#clip-close)">
    <g id="Rectangle_74" data-name="Rectangle 74" fill="#fff" stroke="#707070" stroke-width="1" opacity="0.32">
      <rect width="48" height="23" rx="11.5" stroke="none"/>
      <rect x="0.5" y="0.5" width="47" height="22" rx="11" fill="none"/>
    </g>
    <path id="Path_56" data-name="Path 56" d="M6.322,11.678a4.669,4.669,0,0,1-2.165.451,3.539,3.539,0,0,1-2.686-1.058A3.855,3.855,0,0,1,.462,8.294,4.043,4.043,0,0,1,1.6,5.308,3.886,3.886,0,0,1,4.469,4.169a4.7,4.7,0,0,1,1.853.317V5.753A3.307,3.307,0,0,0,4.6,5.292a2.7,2.7,0,0,0-2.028.8A2.94,2.94,0,0,0,1.8,8.229a2.8,2.8,0,0,0,.725,2.028,2.523,2.523,0,0,0,1.907.755A3.414,3.414,0,0,0,6.322,10.5ZM8.895,12H7.643V3.857H8.895Zm4.061.129a2.726,2.726,0,0,1-2.033-.771,2.784,2.784,0,0,1-.76-2.044,2.9,2.9,0,0,1,.792-2.165,2.913,2.913,0,0,1,2.135-.779,2.639,2.639,0,0,1,2.009.757,2.925,2.925,0,0,1,.72,2.1,2.883,2.883,0,0,1-.776,2.108A2.788,2.788,0,0,1,12.955,12.129Zm.059-4.764a1.422,1.422,0,0,0-1.155.51,2.137,2.137,0,0,0-.424,1.407,2.012,2.012,0,0,0,.43,1.362,1.443,1.443,0,0,0,1.149.5,1.369,1.369,0,0,0,1.131-.489,2.164,2.164,0,0,0,.395-1.391,2.2,2.2,0,0,0-.395-1.4A1.363,1.363,0,0,0,13.014,7.365Zm3.728,4.463V10.673a2.486,2.486,0,0,0,1.542.532q1.128,0,1.128-.666a.525.525,0,0,0-.1-.32.923.923,0,0,0-.26-.234,2.048,2.048,0,0,0-.387-.183l-.5-.183a5.26,5.26,0,0,1-.61-.285,1.842,1.842,0,0,1-.451-.341,1.287,1.287,0,0,1-.271-.432A1.592,1.592,0,0,1,16.747,8a1.3,1.3,0,0,1,.188-.7,1.634,1.634,0,0,1,.5-.51,2.421,2.421,0,0,1,.72-.312,3.3,3.3,0,0,1,.833-.1,3.785,3.785,0,0,1,1.364.231v1.09a2.3,2.3,0,0,0-1.332-.4,1.74,1.74,0,0,0-.427.048,1.1,1.1,0,0,0-.325.134.661.661,0,0,0-.209.207.493.493,0,0,0-.075.266.568.568,0,0,0,.075.3.683.683,0,0,0,.223.218,1.925,1.925,0,0,0,.354.172q.207.078.475.169a6.945,6.945,0,0,1,.636.3,2.151,2.151,0,0,1,.481.341,1.337,1.337,0,0,1,.306.44,1.5,1.5,0,0,1,.107.594,1.357,1.357,0,0,1-.193.73,1.612,1.612,0,0,1-.516.516,2.414,2.414,0,0,1-.744.3,3.865,3.865,0,0,1-.889.1A3.745,3.745,0,0,1,16.742,11.828Zm9.743-2.24H22.736a1.585,1.585,0,0,0,.47,1.176,1.749,1.749,0,0,0,1.233.414,2.718,2.718,0,0,0,1.617-.526v1a3.694,3.694,0,0,1-1.987.473,2.46,2.46,0,0,1-1.9-.749,3,3,0,0,1-.69-2.108,2.931,2.931,0,0,1,.76-2.092,2.486,2.486,0,0,1,1.888-.808,2.168,2.168,0,0,1,1.746.725,3.011,3.011,0,0,1,.618,2.014Zm-1.2-.881a1.606,1.606,0,0,0-.317-1.045,1.059,1.059,0,0,0-.859-.373,1.209,1.209,0,0,0-.91.392,1.791,1.791,0,0,0-.459,1.026Z" transform="translate(10 4)"/>
  </g>
</svg>
