<svg xmlns="http://www.w3.org/2000/svg" xmlns:xlink="http://www.w3.org/1999/xlink" width="1018" height="652" viewBox="0 0 1018 652">
  <defs>
    <linearGradient id="linear-gradient" x1="0.134" y1="0.226" x2="0.844" y2="0.82" gradientUnits="objectBoundingBox">
      <stop offset="0" stop-color="#283774"/>
      <stop offset="1" stop-color="#3893a1"/>
    </linearGradient>
    <clipPath id="clip-graduation">
      <rect width="1018" height="652"/>
    </clipPath>
  </defs>
  <g id="graduation" clip-path="url(#clip-graduation)">
    <rect width="1018" height="652" fill="url(#linear-gradient)"/>
    <path id="Path_28" data-name="Path 28" d="M56.313,111H5.642v-8.644l25.1-27.38a62.51,62.51,0,0,0,7.738-10.119,16.4,16.4,0,0,0,2.3-8.152,12.386,12.386,0,0,0-3.028-8.7A10.5,10.5,0,0,0,29.605,44.7q-6.107,0-9.472,3.727t-3.364,10.2H4.192a24.65,24.65,0,0,1,3.131-12.4,21.562,21.562,0,0,1,8.954-8.566,28.5,28.5,0,0,1,13.431-3.054q10.973,0,17.313,5.512t6.34,15.243a25.867,25.867,0,0,1-3.183,11.827A67.25,67.25,0,0,1,39.75,81.239l-18.426,19.72H56.313Zm58.693-31.728q0,16.252-6.082,24.507t-18.5,8.255q-12.215,0-18.4-8.048t-6.34-23.834V67.109q0-16.252,6.082-24.378t18.555-8.126q12.37,0,18.452,7.919t6.237,23.705ZM102.429,65.194q0-10.61-2.9-15.553T90.317,44.7q-6.159,0-9.058,4.684T78.206,64v17.08q0,10.559,2.95,15.734a9.91,9.91,0,0,0,9.265,5.176q6.056,0,8.954-4.788t3.054-14.984ZM176.8,111H126.134v-8.644l25.1-27.38a62.51,62.51,0,0,0,7.738-10.119,16.4,16.4,0,0,0,2.3-8.152,12.386,12.386,0,0,0-3.028-8.7A10.5,10.5,0,0,0,150.1,44.7q-6.107,0-9.472,3.727t-3.364,10.2H124.685a24.65,24.65,0,0,1,3.131-12.4,21.562,21.562,0,0,1,8.954-8.566A28.5,28.5,0,0,1,150.2,34.605q10.973,0,17.313,5.512t6.34,15.243a25.867,25.867,0,0,1-3.183,11.827,67.249,67.249,0,0,1-10.429,14.052l-18.426,19.72H176.8ZM235.5,79.272q0,16.252-6.082,24.507t-18.5,8.255q-12.215,0-18.4-8.048t-6.34-23.834V67.109q0-16.252,6.082-24.378t18.555-8.126q12.37,0,18.452,7.919T235.5,66.229ZM222.921,65.194q0-10.61-2.9-15.553T210.81,44.7q-6.159,0-9.058,4.684T198.7,64v17.08q0,10.559,2.95,15.734a9.909,9.909,0,0,0,9.265,5.176q6.056,0,8.954-4.788t3.054-14.984ZM332.8,101.218a25.038,25.038,0,0,1-11.335,8.074,46.245,46.245,0,0,1-16.459,2.743,32.433,32.433,0,0,1-16.77-4.3,28.615,28.615,0,0,1-11.257-12.292,43.006,43.006,0,0,1-4.115-18.659v-5.9q0-17.08,8.178-26.681t22.825-9.6q12.577,0,19.979,6.237t8.9,17.934H319.915q-2.174-13.612-15.786-13.612-8.8,0-13.379,6.335t-4.736,18.59V75.88q0,12.2,5.15,18.952t14.311,6.748q10.041,0,14.285-4.555V82.274H304.232V72.337H332.8ZM375.3,66.488a31.123,31.123,0,0,0-5.124-.414q-8.644,0-11.646,6.625V111H345.949V55h12.008l.311,6.263q4.555-7.3,12.629-7.3a11.774,11.774,0,0,1,4.451.725ZM415.149,111a19.41,19.41,0,0,1-1.449-5.228,19.578,19.578,0,0,1-14.7,6.263q-8.437,0-13.768-4.813a15.4,15.4,0,0,1-5.331-11.9q0-8.954,6.651-13.742t19.021-4.788h7.712V73.113a9.809,9.809,0,0,0-2.433-6.961q-2.433-2.614-7.4-2.614a11.078,11.078,0,0,0-7.039,2.148,6.648,6.648,0,0,0-2.743,5.46H381.093a13.959,13.959,0,0,1,3.054-8.618,20.344,20.344,0,0,1,8.307-6.289,29.179,29.179,0,0,1,11.723-2.277q9.834,0,15.683,4.943t6,13.9V98.061q0,7.557,2.122,12.06V111Zm-13.819-9.058a14.307,14.307,0,0,0,7.013-1.812,12.1,12.1,0,0,0,4.943-4.865V84.707h-6.78q-6.987,0-10.507,2.433a7.88,7.88,0,0,0-3.52,6.884,7.35,7.35,0,0,0,2.407,5.771A9.32,9.32,0,0,0,401.33,101.942Zm35.351-19.357q0-12.939,6-20.781a19.237,19.237,0,0,1,16.1-7.841,18.279,18.279,0,0,1,14.389,6.211V31.5h12.577V111H474.36l-.621-5.8q-5.642,6.832-15.062,6.832a19.129,19.129,0,0,1-15.916-7.919Q436.681,96.2,436.681,82.585Zm12.577,1.087q0,8.54,3.287,13.328a10.664,10.664,0,0,0,9.342,4.788A11.878,11.878,0,0,0,473.17,94.9V70.991a11.7,11.7,0,0,0-11.18-6.729,10.743,10.743,0,0,0-9.42,4.839Q449.258,73.941,449.258,83.672Zm83.537,21.842q-5.538,6.521-15.734,6.521-9.109,0-13.793-5.331T498.583,91.28V55H511.16V91.125q0,10.662,8.851,10.662,9.161,0,12.37-6.573V55h12.577v56H533.105ZM591.229,111a19.411,19.411,0,0,1-1.449-5.228,19.578,19.578,0,0,1-14.7,6.263q-8.436,0-13.768-4.813a15.4,15.4,0,0,1-5.331-11.9q0-8.954,6.651-13.742t19.021-4.788h7.712V73.113a9.809,9.809,0,0,0-2.433-6.961q-2.433-2.614-7.4-2.614a11.078,11.078,0,0,0-7.039,2.148,6.648,6.648,0,0,0-2.743,5.46H557.173a13.959,13.959,0,0,1,3.054-8.618,20.344,20.344,0,0,1,8.307-6.289,29.179,29.179,0,0,1,11.723-2.277q9.834,0,15.683,4.943t6,13.9V98.061q0,7.557,2.122,12.06V111Zm-13.819-9.058a14.307,14.307,0,0,0,7.013-1.812,12.1,12.1,0,0,0,4.943-4.865V84.707h-6.78q-6.987,0-10.507,2.433a7.88,7.88,0,0,0-3.52,6.884,7.35,7.35,0,0,0,2.407,5.771A9.32,9.32,0,0,0,577.41,101.942Zm53.466-60.557V55h9.886v9.316h-9.886V95.576q0,3.209,1.268,4.632t4.529,1.423a19.374,19.374,0,0,0,4.4-.518v9.73a30.976,30.976,0,0,1-8.281,1.19q-14.492,0-14.492-15.993V64.314h-9.213V55H618.3V41.386ZM663.742,111H651.165V55h12.577ZM650.389,40.454a6.675,6.675,0,0,1,1.837-4.813,6.94,6.94,0,0,1,5.253-1.915,7.028,7.028,0,0,1,5.279,1.915,6.624,6.624,0,0,1,1.863,4.813,6.471,6.471,0,0,1-1.863,4.736,7.083,7.083,0,0,1-5.279,1.889,6.994,6.994,0,0,1-5.253-1.889A6.52,6.52,0,0,1,650.389,40.454Zm24.688,42.027a33.022,33.022,0,0,1,3.261-14.829A23.815,23.815,0,0,1,687.5,57.508a25.812,25.812,0,0,1,13.561-3.545q11.335,0,18.4,7.3t7.634,19.357l.052,2.95a33.317,33.317,0,0,1-3.183,14.8,23.528,23.528,0,0,1-9.109,10.093,26,26,0,0,1-13.69,3.571q-11.853,0-18.969-7.893T675.077,83.1Zm12.577,1.087q0,8.644,3.571,13.535a11.61,11.61,0,0,0,9.938,4.891,11.483,11.483,0,0,0,9.912-4.969q3.545-4.969,3.545-14.544,0-8.488-3.649-13.457a12.3,12.3,0,0,0-19.694-.078Q687.654,73.838,687.654,83.568ZM749.453,55l.362,6.47a20.136,20.136,0,0,1,16.3-7.5q17.494,0,17.8,20.03V111H771.347V74.718q0-5.331-2.3-7.893t-7.531-2.562q-7.608,0-11.335,6.884V111H737.6V55Z" transform="translate(112 209)" fill="#fff"/>
    <path id="Path_27" data-name="Path 27" d="M143.69,55.63h19.2V60H138.319V19.477h5.372ZM173.777,60h-5.149V29.886h5.149ZM168.21,21.9a3.073,3.073,0,0,1,.765-2.115,2.874,2.874,0,0,1,2.268-.863,2.918,2.918,0,0,1,2.282.863,3.041,3.041,0,0,1,.779,2.115,2.941,2.941,0,0,1-.779,2.087,2.971,2.971,0,0,1-2.282.835,2.925,2.925,0,0,1-2.268-.835A2.972,2.972,0,0,1,168.21,21.9Zm23.741,31.116,7.459-23.128h5.26L193.872,60h-3.924l-10.91-30.114h5.26Zm30.17,7.542a13.158,13.158,0,0,1-9.964-4.022q-3.841-4.022-3.841-10.757v-.946a18.071,18.071,0,0,1,1.712-8,13.352,13.352,0,0,1,4.787-5.511,12.036,12.036,0,0,1,6.666-1.99q5.873,0,9.129,3.869t3.256,11.077v2.143h-20.4a10.7,10.7,0,0,0,2.6,7.195,8.18,8.18,0,0,0,6.332,2.741,8.968,8.968,0,0,0,4.62-1.113,11.608,11.608,0,0,0,3.312-2.95l3.145,2.449Q229.691,60.557,222.121,60.557Zm-.64-27a6.868,6.868,0,0,0-5.232,2.268,11.025,11.025,0,0,0-2.616,6.36h15.085V41.8a9.807,9.807,0,0,0-2.115-6.081A6.466,6.466,0,0,0,221.481,33.56Zm35.875,18.453a3.791,3.791,0,0,0-1.573-3.242,15.136,15.136,0,0,0-5.483-1.99,25.923,25.923,0,0,1-6.207-2,8.83,8.83,0,0,1-3.4-2.783,6.657,6.657,0,0,1-1.1-3.841,7.812,7.812,0,0,1,3.131-6.262,12.228,12.228,0,0,1,8-2.561,12.583,12.583,0,0,1,8.308,2.644,8.4,8.4,0,0,1,3.187,6.763H257.05a4.648,4.648,0,0,0-1.8-3.646,6.726,6.726,0,0,0-4.523-1.531,7.039,7.039,0,0,0-4.4,1.225,3.855,3.855,0,0,0-1.586,3.2,3.123,3.123,0,0,0,1.475,2.811,18.149,18.149,0,0,0,5.33,1.809,27.771,27.771,0,0,1,6.248,2.06,9.114,9.114,0,0,1,3.549,2.881,7.083,7.083,0,0,1,1.155,4.105,7.707,7.707,0,0,1-3.229,6.471,13.542,13.542,0,0,1-8.377,2.435,15.164,15.164,0,0,1-6.4-1.28,10.411,10.411,0,0,1-4.356-3.576,8.62,8.62,0,0,1-1.573-4.968h5.149a5.331,5.331,0,0,0,2.073,4.105,8.044,8.044,0,0,0,5.107,1.517,8.3,8.3,0,0,0,4.69-1.183A3.635,3.635,0,0,0,257.356,52.012ZM276.2,22.594v7.292h5.622v3.98H276.2v18.7a4.18,4.18,0,0,0,.751,2.717,3.163,3.163,0,0,0,2.561.906,12.466,12.466,0,0,0,2.449-.334V60a15.015,15.015,0,0,1-3.952.553,6.412,6.412,0,0,1-5.2-2.087,8.968,8.968,0,0,1-1.753-5.928V33.866h-5.483v-3.98h5.483V22.594Zm26.19,11.912a15.43,15.43,0,0,0-2.533-.195q-5.065,0-6.875,4.314V60h-5.149V29.886h5.01l.083,3.479a8.017,8.017,0,0,1,7.181-4.036,5.26,5.26,0,0,1,2.282.39Zm17.228,26.051a13.158,13.158,0,0,1-9.964-4.022q-3.841-4.022-3.841-10.757v-.946a18.071,18.071,0,0,1,1.712-8,13.352,13.352,0,0,1,4.787-5.511,12.036,12.036,0,0,1,6.666-1.99q5.873,0,9.129,3.869t3.256,11.077v2.143h-20.4a10.7,10.7,0,0,0,2.6,7.195,8.18,8.18,0,0,0,6.332,2.741,8.968,8.968,0,0,0,4.62-1.113,11.608,11.608,0,0,0,3.312-2.95l3.145,2.449Q327.187,60.557,319.617,60.557Zm-.64-27a6.868,6.868,0,0,0-5.232,2.268,11.025,11.025,0,0,0-2.616,6.36h15.085V41.8a9.807,9.807,0,0,0-2.115-6.081A6.466,6.466,0,0,0,318.977,33.56ZM355.91,60a10.816,10.816,0,0,1-.724-3.173,11.488,11.488,0,0,1-8.572,3.729,10.63,10.63,0,0,1-7.306-2.519,8.149,8.149,0,0,1-2.853-6.387,8.513,8.513,0,0,1,3.576-7.306q3.576-2.6,10.061-2.6h5.01V39.376a5.783,5.783,0,0,0-1.614-4.3,6.488,6.488,0,0,0-4.759-1.6,7.508,7.508,0,0,0-4.62,1.392,4.1,4.1,0,0,0-1.865,3.368h-5.177a7.106,7.106,0,0,1,1.6-4.356,10.923,10.923,0,0,1,4.342-3.326,14.607,14.607,0,0,1,6.026-1.225q5.2,0,8.155,2.6a9.387,9.387,0,0,1,3.062,7.167v13.86a16.946,16.946,0,0,0,1.058,6.6V60Zm-8.544-3.924a9.049,9.049,0,0,0,4.592-1.252,7.576,7.576,0,0,0,3.145-3.256V45.388h-4.036q-9.463,0-9.463,5.539a4.687,4.687,0,0,0,1.614,3.785A6.2,6.2,0,0,0,347.365,56.076Zm25.8-26.19.139,3.34a11.121,11.121,0,0,1,8.934-3.9q6.318,0,8.6,4.843a11.408,11.408,0,0,1,3.91-3.507,11.55,11.55,0,0,1,5.692-1.336q9.908,0,10.075,10.493V60h-5.149V40.128a6.915,6.915,0,0,0-1.475-4.829q-1.475-1.6-4.954-1.6a6.828,6.828,0,0,0-4.759,1.712,6.944,6.944,0,0,0-2.2,4.606V60H386.8V40.267q0-6.568-6.429-6.568-5.065,0-6.93,4.314V60h-5.149V29.886Z" transform="translate(246 328)" fill="#fff"/>
    <path id="Path_26" data-name="Path 26" d="M254.682,30.007a18.074,18.074,0,0,1-7.2-3.493,6.675,6.675,0,0,1-2.252-5.115,7.051,7.051,0,0,1,2.753-5.7,10.94,10.94,0,0,1,7.157-2.252,11.942,11.942,0,0,1,5.355,1.161,8.805,8.805,0,0,1,3.644,3.2,8.191,8.191,0,0,1,1.291,4.464h-3.864a5.33,5.33,0,0,0-1.682-4.169,6.838,6.838,0,0,0-4.745-1.517,7,7,0,0,0-4.434,1.254,4.181,4.181,0,0,0-1.592,3.479,3.762,3.762,0,0,0,1.511,3.019,14.825,14.825,0,0,0,5.145,2.256,23.872,23.872,0,0,1,5.686,2.254,8.628,8.628,0,0,1,3.043,2.873,7.332,7.332,0,0,1,.991,3.864,6.81,6.81,0,0,1-2.763,5.676,11.779,11.779,0,0,1-7.387,2.132,13.7,13.7,0,0,1-5.605-1.151,9.433,9.433,0,0,1-4.014-3.153,7.7,7.7,0,0,1-1.411-4.544h3.864a5.02,5.02,0,0,0,1.952,4.174,8.219,8.219,0,0,0,5.215,1.531,7.555,7.555,0,0,0,4.665-1.241,4.032,4.032,0,0,0,1.622-3.383,3.958,3.958,0,0,0-1.5-3.313A17.31,17.31,0,0,0,254.682,30.007Zm20.18-13.914v5.245h4.044V24.2h-4.044v13.45a3.006,3.006,0,0,0,.541,1.954,2.275,2.275,0,0,0,1.842.651,8.967,8.967,0,0,0,1.762-.24V43a10.8,10.8,0,0,1-2.843.4,4.612,4.612,0,0,1-3.744-1.5,6.45,6.45,0,0,1-1.261-4.264V24.2h-3.944V21.339h3.944V16.094ZM296.6,43a7.78,7.78,0,0,1-.521-2.282,8.264,8.264,0,0,1-6.166,2.683,7.646,7.646,0,0,1-5.255-1.812,5.862,5.862,0,0,1-2.052-4.594,6.124,6.124,0,0,1,2.573-5.255q2.572-1.872,7.237-1.872h3.6v-1.7a4.16,4.16,0,0,0-1.161-3.093,4.667,4.667,0,0,0-3.423-1.151,5.4,5.4,0,0,0-3.323,1,2.95,2.95,0,0,0-1.341,2.422H283.05a5.111,5.111,0,0,1,1.151-3.133,7.857,7.857,0,0,1,3.123-2.392,10.506,10.506,0,0,1,4.334-.881,8.563,8.563,0,0,1,5.866,1.872,6.752,6.752,0,0,1,2.2,5.155v9.97a12.189,12.189,0,0,0,.761,4.745V43Zm-6.146-2.823a6.509,6.509,0,0,0,3.3-.9,5.449,5.449,0,0,0,2.262-2.342V32.49h-2.9q-6.807,0-6.807,3.984a3.372,3.372,0,0,0,1.161,2.723A4.463,4.463,0,0,0,290.457,40.177ZM316,24.662a11.1,11.1,0,0,0-1.822-.14,4.881,4.881,0,0,0-4.945,3.1V43h-3.7V21.339h3.6l.06,2.5a5.767,5.767,0,0,1,5.165-2.9,3.784,3.784,0,0,1,1.642.28Zm9.429-8.568v5.245h4.044V24.2h-4.044v13.45a3.006,3.006,0,0,0,.541,1.954,2.275,2.275,0,0,0,1.842.651,8.967,8.967,0,0,0,1.762-.24V43a10.8,10.8,0,0,1-2.843.4,4.612,4.612,0,0,1-3.744-1.5,6.45,6.45,0,0,1-1.261-4.264V24.2h-3.944V21.339h3.944V16.094Zm20.98,21.161a2.727,2.727,0,0,0-1.131-2.332,10.887,10.887,0,0,0-3.944-1.431,18.646,18.646,0,0,1-4.464-1.441,6.351,6.351,0,0,1-2.442-2,4.789,4.789,0,0,1-.791-2.763,5.619,5.619,0,0,1,2.252-4.5,8.8,8.8,0,0,1,5.756-1.842,9.051,9.051,0,0,1,5.976,1.9,6.041,6.041,0,0,1,2.292,4.865h-3.724a3.344,3.344,0,0,0-1.291-2.623,4.838,4.838,0,0,0-3.253-1.1,5.063,5.063,0,0,0-3.163.881,2.773,2.773,0,0,0-1.141,2.3,2.247,2.247,0,0,0,1.061,2.022,13.055,13.055,0,0,0,3.834,1.3,19.976,19.976,0,0,1,4.494,1.481,6.556,6.556,0,0,1,2.552,2.072,5.1,5.1,0,0,1,.831,2.953,5.544,5.544,0,0,1-2.322,4.655,9.741,9.741,0,0,1-6.026,1.752,10.908,10.908,0,0,1-4.6-.921,7.489,7.489,0,0,1-3.133-2.573,6.2,6.2,0,0,1-1.131-3.573h3.7a3.834,3.834,0,0,0,1.491,2.953,5.786,5.786,0,0,0,3.674,1.091,5.973,5.973,0,0,0,3.373-.851A2.614,2.614,0,0,0,346.411,37.254Zm24.224-23.4,9.529,23.783,9.529-23.783h4.985V43h-3.844V31.649L391.2,19.4,381.626,43h-2.943l-9.549-23.543.38,12.192V43H365.67V13.852ZM414.258,43a7.78,7.78,0,0,1-.521-2.282,8.264,8.264,0,0,1-6.166,2.683,7.646,7.646,0,0,1-5.255-1.812,5.862,5.862,0,0,1-2.052-4.594,6.124,6.124,0,0,1,2.573-5.255q2.572-1.872,7.237-1.872h3.6v-1.7a4.16,4.16,0,0,0-1.161-3.093,4.667,4.667,0,0,0-3.423-1.151,5.4,5.4,0,0,0-3.323,1,2.95,2.95,0,0,0-1.341,2.422H400.7a5.111,5.111,0,0,1,1.151-3.133,7.857,7.857,0,0,1,3.123-2.392,10.506,10.506,0,0,1,4.334-.881,8.563,8.563,0,0,1,5.866,1.872,6.752,6.752,0,0,1,2.2,5.155v9.97a12.189,12.189,0,0,0,.761,4.745V43Zm-6.146-2.823a6.509,6.509,0,0,0,3.3-.9,5.449,5.449,0,0,0,2.262-2.342V32.49h-2.9q-6.807,0-6.807,3.984a3.372,3.372,0,0,0,1.161,2.723A4.463,4.463,0,0,0,408.112,40.177Zm22.162-2.6,5.045-16.236h3.964l-8.708,25q-2.022,5.405-6.426,5.405l-.7-.06-1.381-.26v-3l1,.08A4.928,4.928,0,0,0,426,47.745a5.505,5.505,0,0,0,1.732-2.783l.821-2.2-7.728-21.421h4.044ZM471.453,43h-19.1V40.337l10.09-11.211a23.972,23.972,0,0,0,3.093-4.134,6.9,6.9,0,0,0,.851-3.293,5.23,5.23,0,0,0-1.381-3.744,4.83,4.83,0,0,0-3.684-1.461,5.72,5.72,0,0,0-4.294,1.572A6,6,0,0,0,455.5,22.44h-3.7a8.6,8.6,0,0,1,2.593-6.506,9.611,9.611,0,0,1,6.937-2.482,9.235,9.235,0,0,1,6.426,2.132,7.273,7.273,0,0,1,2.362,5.676q0,4.3-5.485,10.25l-7.808,8.468h14.634ZM494.2,15.934,482.124,43H478.24l12.032-26.105H474.5V13.852h19.7Zm4.464,32.872-2.1-1.441a9.661,9.661,0,0,0,1.962-5.405V38.616h3.624v2.9a9.119,9.119,0,0,1-.991,4.044A9.468,9.468,0,0,1,498.66,48.806ZM535.7,43H516.6V40.337l10.09-11.211a23.969,23.969,0,0,0,3.093-4.134,6.9,6.9,0,0,0,.851-3.293,5.23,5.23,0,0,0-1.381-3.744,4.83,4.83,0,0,0-3.684-1.461,5.72,5.72,0,0,0-4.294,1.572,6,6,0,0,0-1.531,4.374h-3.7a8.6,8.6,0,0,1,2.593-6.506,9.611,9.611,0,0,1,6.937-2.482,9.235,9.235,0,0,1,6.426,2.132,7.273,7.273,0,0,1,2.362,5.676q0,4.3-5.485,10.25l-7.808,8.468H535.7Zm22.2-12.432q0,6.506-2.222,9.669T548.729,43.4q-4.665,0-6.907-3.093T539.5,31.068V26.124q0-6.426,2.222-9.549t6.967-3.123q4.7,0,6.927,3.013t2.282,9.3Zm-3.7-5.065q0-4.7-1.321-6.857a4.548,4.548,0,0,0-4.184-2.152,4.488,4.488,0,0,0-4.144,2.142q-1.3,2.142-1.341,6.586v5.926q0,4.725,1.371,6.977a4.539,4.539,0,0,0,4.154,2.252,4.477,4.477,0,0,0,4.074-2.122q1.331-2.122,1.391-6.687ZM581.741,43h-19.1V40.337l10.09-11.211a23.969,23.969,0,0,0,3.093-4.134,6.9,6.9,0,0,0,.851-3.293,5.23,5.23,0,0,0-1.381-3.744,4.83,4.83,0,0,0-3.684-1.461,5.72,5.72,0,0,0-4.294,1.572,6,6,0,0,0-1.531,4.374h-3.7a8.6,8.6,0,0,1,2.593-6.506,9.611,9.611,0,0,1,6.937-2.482,9.235,9.235,0,0,1,6.426,2.132,7.273,7.273,0,0,1,2.362,5.676q0,4.3-5.485,10.25l-7.808,8.468h14.634Zm22.2-12.432q0,6.506-2.222,9.669T594.774,43.4q-4.665,0-6.907-3.093t-2.322-9.239V26.124q0-6.426,2.222-9.549t6.967-3.123q4.7,0,6.927,3.013t2.282,9.3Zm-3.7-5.065q0-4.7-1.321-6.857a4.548,4.548,0,0,0-4.184-2.152,4.488,4.488,0,0,0-4.144,2.142q-1.3,2.142-1.341,6.586v5.926q0,4.725,1.371,6.977a4.539,4.539,0,0,0,4.154,2.252,4.477,4.477,0,0,0,4.074-2.122q1.331-2.122,1.391-6.687Zm37.417-9.569L625.584,43H621.7l12.032-26.105H617.956V13.852h19.7Zm4.464,25.125a2.319,2.319,0,0,1,.571-1.6,2.174,2.174,0,0,1,1.712-.641,2.239,2.239,0,0,1,1.732.641,2.272,2.272,0,0,1,.591,1.6,2.149,2.149,0,0,1-.591,1.542,2.28,2.28,0,0,1-1.732.621,2.059,2.059,0,0,1-2.282-2.162Zm.02-17.677a2.319,2.319,0,0,1,.571-1.6,2.174,2.174,0,0,1,1.712-.641,2.239,2.239,0,0,1,1.732.641,2.272,2.272,0,0,1,.591,1.6,2.149,2.149,0,0,1-.591,1.542,2.28,2.28,0,0,1-1.732.621,2.059,2.059,0,0,1-2.282-2.162Zm27.927,7.187q0,6.506-2.222,9.669T660.9,43.4q-4.665,0-6.907-3.093t-2.322-9.239V26.124q0-6.426,2.222-9.549t6.967-3.123q4.7,0,6.927,3.013t2.282,9.3Zm-3.7-5.065q0-4.7-1.321-6.857a4.548,4.548,0,0,0-4.184-2.152,4.488,4.488,0,0,0-4.144,2.142q-1.3,2.142-1.341,6.586v5.926q0,4.725,1.371,6.977a4.539,4.539,0,0,0,4.154,2.252,4.477,4.477,0,0,0,4.074-2.122q1.331-2.122,1.391-6.687Zm26.726,5.065q0,6.506-2.222,9.669T683.921,43.4q-4.665,0-6.907-3.093t-2.322-9.239V26.124q0-6.426,2.222-9.549t6.967-3.123q4.7,0,6.927,3.013t2.282,9.3Zm-3.7-5.065q0-4.7-1.321-6.857a4.548,4.548,0,0,0-4.184-2.152,4.488,4.488,0,0,0-4.144,2.142q-1.3,2.142-1.341,6.586v5.926q0,4.725,1.371,6.977a4.539,4.539,0,0,0,4.154,2.252,4.477,4.477,0,0,0,4.074-2.122q1.331-2.122,1.391-6.687Zm37.276,6.907a12.97,12.97,0,0,1-2.262,7.968,7.25,7.25,0,0,1-6.126,3.023,7.944,7.944,0,0,1-6.206-2.5v10.43h-3.7V21.339h3.383l.18,2.4a7.629,7.629,0,0,1,6.286-2.8,7.386,7.386,0,0,1,6.176,2.943q2.272,2.943,2.272,8.188Zm-3.7-.42A9.571,9.571,0,0,0,721.4,26.2a5.03,5.03,0,0,0-4.284-2.122,5.444,5.444,0,0,0-5.045,2.983v10.35a5.455,5.455,0,0,0,5.085,2.963,5.006,5.006,0,0,0,4.234-2.112Q722.959,36.153,722.959,31.989Zm8.488,9.069a2.319,2.319,0,0,1,.571-1.6,2.174,2.174,0,0,1,1.712-.641,2.239,2.239,0,0,1,1.732.641,2.272,2.272,0,0,1,.591,1.6,2.149,2.149,0,0,1-.591,1.542,2.28,2.28,0,0,1-1.732.621,2.059,2.059,0,0,1-2.282-2.162Zm14.194-19.719.1,2.4a8,8,0,0,1,6.426-2.8q4.544,0,6.186,3.483a8.206,8.206,0,0,1,2.813-2.522,8.308,8.308,0,0,1,4.094-.961q7.127,0,7.247,7.547V43h-3.7V28.706a4.974,4.974,0,0,0-1.061-3.473,4.673,4.673,0,0,0-3.563-1.151,4.911,4.911,0,0,0-3.423,1.231,5,5,0,0,0-1.582,3.313V43H755.45V28.806q0-4.725-4.625-4.725a4.955,4.955,0,0,0-4.985,3.1V43h-3.7V21.339Z" transform="translate(0 495)" fill="#fff" opacity="0.65"/>
    <path id="Path_25" data-name="Path 25" d="M94.674,18.069l.3,2.063.44-1.858L98.509,7.359h1.74l3.019,10.914.43,1.891.333-2.105,2.428-10.7h2.073L104.739,23h-1.88L99.637,11.6,99.39,10.41,99.143,11.6,95.8,23h-1.88L90.141,7.359H92.2ZM117.329,23a4.175,4.175,0,0,1-.279-1.225,4.434,4.434,0,0,1-3.309,1.439,4.1,4.1,0,0,1-2.82-.972,3.145,3.145,0,0,1-1.1-2.465,3.286,3.286,0,0,1,1.38-2.82,6.508,6.508,0,0,1,3.883-1h1.934V15.04a2.232,2.232,0,0,0-.623-1.66,2.5,2.5,0,0,0-1.837-.618,2.9,2.9,0,0,0-1.783.537,1.583,1.583,0,0,0-.72,1.3h-2a2.743,2.743,0,0,1,.618-1.681,4.216,4.216,0,0,1,1.676-1.284,5.638,5.638,0,0,1,2.326-.473,4.6,4.6,0,0,1,3.147,1A3.623,3.623,0,0,1,119,14.933v5.35a6.54,6.54,0,0,0,.408,2.546V23Zm-3.3-1.515A3.493,3.493,0,0,0,115.8,21a2.924,2.924,0,0,0,1.214-1.257V17.36H115.46q-3.652,0-3.652,2.138a1.809,1.809,0,0,0,.623,1.461A2.4,2.4,0,0,0,114.031,21.485ZM124.816,8.563v2.814h2.17v1.536h-2.17V20.13a1.613,1.613,0,0,0,.29,1.049,1.221,1.221,0,0,0,.988.35,4.811,4.811,0,0,0,.945-.129V23a5.8,5.8,0,0,1-1.525.214,2.475,2.475,0,0,1-2.009-.806,3.461,3.461,0,0,1-.677-2.288V12.913h-2.116V11.377h2.116V8.563Zm9.152,13.03a2.863,2.863,0,0,0,1.858-.645,2.268,2.268,0,0,0,.881-1.611h1.88a3.6,3.6,0,0,1-.687,1.9,4.528,4.528,0,0,1-1.692,1.439,4.882,4.882,0,0,1-2.24.537,4.788,4.788,0,0,1-3.776-1.584,6.311,6.311,0,0,1-1.4-4.334v-.333a7,7,0,0,1,.623-3.019,4.745,4.745,0,0,1,1.789-2.052,5.081,5.081,0,0,1,2.755-.73,4.662,4.662,0,0,1,3.25,1.171,4.185,4.185,0,0,1,1.38,3.04h-1.88a2.739,2.739,0,0,0-.854-1.853,2.657,2.657,0,0,0-1.9-.725,2.781,2.781,0,0,0-2.347,1.09,5.121,5.121,0,0,0-.833,3.153v.376a5.018,5.018,0,0,0,.827,3.094A2.8,2.8,0,0,0,133.969,21.593Zm8.841-8.809a4.225,4.225,0,0,1,3.438-1.622q3.685,0,3.717,4.157V23h-1.987V15.309a2.676,2.676,0,0,0-.575-1.858,2.3,2.3,0,0,0-1.756-.6,2.868,2.868,0,0,0-1.7.516,3.5,3.5,0,0,0-1.139,1.354V23h-1.987V6.5h1.987Zm27.919,2.9a9.675,9.675,0,0,1-.773,4.012,5.858,5.858,0,0,1-2.191,2.616,6.047,6.047,0,0,1-8.8-2.594,9.284,9.284,0,0,1-.811-3.894V14.7a9.56,9.56,0,0,1,.784-3.985,5.8,5.8,0,0,1,5.5-3.566,6.063,6.063,0,0,1,3.314.908,5.848,5.848,0,0,1,2.208,2.632,9.722,9.722,0,0,1,.773,4.012Zm-2.052-1.01a7.013,7.013,0,0,0-1.117-4.27,3.685,3.685,0,0,0-3.126-1.488,3.645,3.645,0,0,0-3.078,1.488,6.869,6.869,0,0,0-1.155,4.13v1.149a7.023,7.023,0,0,0,1.133,4.238,3.972,3.972,0,0,0,6.214.086,6.983,6.983,0,0,0,1.128-4.173Zm6.714-3.3.064,1.461a4.236,4.236,0,0,1,3.48-1.676q3.685,0,3.717,4.157V23h-1.987V15.309a2.676,2.676,0,0,0-.575-1.858,2.3,2.3,0,0,0-1.756-.6,2.868,2.868,0,0,0-1.7.516,3.5,3.5,0,0,0-1.139,1.354V23h-1.987V11.377Zm27.564,9.571a4.764,4.764,0,0,1-2.218,1.7,8.96,8.96,0,0,1-3.314.564,6.427,6.427,0,0,1-3.395-.9,5.976,5.976,0,0,1-2.293-2.551,8.812,8.812,0,0,1-.833-3.835V14.567a8.225,8.225,0,0,1,1.649-5.479,5.746,5.746,0,0,1,4.635-1.944A5.935,5.935,0,0,1,201.129,8.4a5.452,5.452,0,0,1,1.826,3.55h-2.062a3.41,3.41,0,0,0-3.7-3.115,3.651,3.651,0,0,0-3.142,1.457,7.113,7.113,0,0,0-1.08,4.22v1.279a6.666,6.666,0,0,0,1.2,4.188,3.9,3.9,0,0,0,3.255,1.554,7.189,7.189,0,0,0,2.03-.257A3.14,3.14,0,0,0,200.9,20.4V16.9h-3.62V15.212h5.672ZM218.413,23H216.34V15.771h-7.885V23h-2.062V7.359h2.063v6.725h7.885V7.359h2.073Zm8.271-6.972a9.7,9.7,0,0,1-3.862-1.875,3.582,3.582,0,0,1-1.208-2.745,3.783,3.783,0,0,1,1.477-3.056,5.87,5.87,0,0,1,3.84-1.208,6.408,6.408,0,0,1,2.874.623,4.725,4.725,0,0,1,1.955,1.719,4.395,4.395,0,0,1,.693,2.4H230.38a2.86,2.86,0,0,0-.9-2.237,3.669,3.669,0,0,0-2.546-.814,3.757,3.757,0,0,0-2.379.673,2.244,2.244,0,0,0-.854,1.867,2.019,2.019,0,0,0,.811,1.62A7.955,7.955,0,0,0,227.27,14.2a12.81,12.81,0,0,1,3.051,1.21,4.629,4.629,0,0,1,1.633,1.542,3.934,3.934,0,0,1,.532,2.073A3.654,3.654,0,0,1,231,22.071a6.321,6.321,0,0,1-3.964,1.144,7.352,7.352,0,0,1-3.008-.618,5.062,5.062,0,0,1-2.154-1.692,4.129,4.129,0,0,1-.757-2.438h2.073a2.694,2.694,0,0,0,1.047,2.24,4.41,4.41,0,0,0,2.8.822,4.054,4.054,0,0,0,2.5-.666,2.163,2.163,0,0,0,.87-1.815,2.124,2.124,0,0,0-.806-1.778A9.288,9.288,0,0,0,226.685,16.028Zm22.526,2.879h-6.553L241.187,23H239.06l5.973-15.641h1.8L252.82,23H250.7Zm-5.93-1.687H248.6l-2.664-7.315Zm21.151.1a6.96,6.96,0,0,1-1.214,4.275,3.89,3.89,0,0,1-3.287,1.622,4.263,4.263,0,0,1-3.33-1.343v5.6h-1.987V11.377h1.815l.1,1.289a4.094,4.094,0,0,1,3.373-1.5,3.963,3.963,0,0,1,3.314,1.579,7.035,7.035,0,0,1,1.219,4.394Zm-1.987-.226a5.135,5.135,0,0,0-.838-3.1,2.7,2.7,0,0,0-2.3-1.139,2.921,2.921,0,0,0-2.707,1.6V20a2.927,2.927,0,0,0,2.729,1.59,2.686,2.686,0,0,0,2.272-1.133A5.606,5.606,0,0,0,262.445,17.092Zm14.33.226a6.96,6.96,0,0,1-1.214,4.275,3.89,3.89,0,0,1-3.287,1.622,4.263,4.263,0,0,1-3.33-1.343v5.6h-1.987V11.377h1.815l.1,1.289a4.094,4.094,0,0,1,3.373-1.5,3.963,3.963,0,0,1,3.314,1.579,7.035,7.035,0,0,1,1.219,4.394Zm-1.987-.226a5.135,5.135,0,0,0-.838-3.1,2.7,2.7,0,0,0-2.3-1.139,2.921,2.921,0,0,0-2.707,1.6V20a2.927,2.927,0,0,0,2.729,1.59,2.686,2.686,0,0,0,2.272-1.133A5.606,5.606,0,0,0,274.788,17.092Zm9.539,1.708a3.668,3.668,0,0,1,.628-2.073,9.576,9.576,0,0,1,2.4-2.2,10.367,10.367,0,0,1-1.4-2.041,3.663,3.663,0,0,1-.354-1.536,3.687,3.687,0,0,1,1.053-2.793,3.956,3.956,0,0,1,2.857-1.01,3.851,3.851,0,0,1,2.664.94,3.04,3.04,0,0,1,1.053,2.369,3.342,3.342,0,0,1-.478,1.746,6.212,6.212,0,0,1-1.67,1.681l-1.149.849,3.48,4.157a6.6,6.6,0,0,0,.73-3.1h1.794a7.489,7.489,0,0,1-1.321,4.544L296.853,23h-2.385l-1.042-1.235a5.446,5.446,0,0,1-1.864,1.08,6.6,6.6,0,0,1-2.175.371A5.375,5.375,0,0,1,285.713,22,4.049,4.049,0,0,1,284.327,18.8Zm5.06,2.793a4.183,4.183,0,0,0,2.89-1.2l-3.813-4.565-.354.258a3.576,3.576,0,0,0-1.794,2.718,2.638,2.638,0,0,0,.822,2.03A3.179,3.179,0,0,0,289.387,21.593Zm-1.794-10.71a4.512,4.512,0,0,0,1.268,2.578l1.268-.892a3.373,3.373,0,0,0,1-.983,2.24,2.24,0,0,0,.269-1.133,1.536,1.536,0,0,0-.537-1.2,1.96,1.96,0,0,0-1.354-.478,1.751,1.751,0,0,0-1.4.6A2.225,2.225,0,0,0,287.593,10.883Zm25.223,8.024h-6.553L304.791,23h-2.127l5.973-15.641h1.8L316.425,23h-2.116Zm-5.93-1.687H312.2l-2.664-7.315Zm10.85-.129A6.809,6.809,0,0,1,319,12.79a4.313,4.313,0,0,1,6.553-.231V6.5h1.987V23h-1.826l-.1-1.246a4.047,4.047,0,0,1-3.319,1.461,3.97,3.97,0,0,1-3.292-1.654,6.886,6.886,0,0,1-1.273-4.318Zm1.987.226a5.155,5.155,0,0,0,.816,3.094,2.639,2.639,0,0,0,2.256,1.117,2.9,2.9,0,0,0,2.761-1.7V14.492a2.921,2.921,0,0,0-2.739-1.644,2.652,2.652,0,0,0-2.277,1.128A5.676,5.676,0,0,0,319.723,17.317Zm12.772-5.94.054,1.289a4.292,4.292,0,0,1,3.448-1.5,3.323,3.323,0,0,1,3.319,1.869,4.4,4.4,0,0,1,1.509-1.354,4.458,4.458,0,0,1,2.2-.516q3.824,0,3.889,4.05V23h-1.987V15.33a2.669,2.669,0,0,0-.569-1.864,2.507,2.507,0,0,0-1.912-.618,2.635,2.635,0,0,0-1.837.661,2.68,2.68,0,0,0-.849,1.778V23h-2V15.384a2.217,2.217,0,0,0-2.481-2.535,2.659,2.659,0,0,0-2.675,1.665V23h-1.987V11.377ZM352.067,23H350.08V11.377h1.987ZM349.919,8.294a1.186,1.186,0,0,1,.3-.816,1.109,1.109,0,0,1,.875-.333,1.126,1.126,0,0,1,.881.333,1.174,1.174,0,0,1,.3.816,1.135,1.135,0,0,1-.3.806,1.147,1.147,0,0,1-.881.322,1.129,1.129,0,0,1-.875-.322A1.147,1.147,0,0,1,349.919,8.294Zm10.946,4.866a5.955,5.955,0,0,0-.978-.075,2.619,2.619,0,0,0-2.653,1.665V23h-1.987V11.377h1.934l.032,1.343a3.094,3.094,0,0,1,2.771-1.558,2.03,2.03,0,0,1,.881.15ZM369.438,23a4.175,4.175,0,0,1-.279-1.225,4.434,4.434,0,0,1-3.309,1.439,4.1,4.1,0,0,1-2.82-.972,3.145,3.145,0,0,1-1.1-2.465,3.286,3.286,0,0,1,1.38-2.82,6.508,6.508,0,0,1,3.883-1h1.934V15.04a2.232,2.232,0,0,0-.623-1.66,2.5,2.5,0,0,0-1.837-.618,2.9,2.9,0,0,0-1.783.537,1.583,1.583,0,0,0-.72,1.3h-2a2.743,2.743,0,0,1,.618-1.681,4.216,4.216,0,0,1,1.676-1.284,5.638,5.638,0,0,1,2.326-.473,4.6,4.6,0,0,1,3.147,1,3.623,3.623,0,0,1,1.182,2.766v5.35a6.541,6.541,0,0,0,.408,2.546V23Zm-3.3-1.515A3.493,3.493,0,0,0,367.912,21a2.924,2.924,0,0,0,1.214-1.257V17.36h-1.558q-3.652,0-3.652,2.138a1.809,1.809,0,0,0,.623,1.461A2.4,2.4,0,0,0,366.14,21.485ZM376.388,23H374.4V6.5h1.987Zm5.06-11.623.064,1.461a4.236,4.236,0,0,1,3.48-1.676q3.685,0,3.717,4.157V23h-1.987V15.309a2.676,2.676,0,0,0-.575-1.858,2.3,2.3,0,0,0-1.756-.6,2.868,2.868,0,0,0-1.7.516,3.5,3.5,0,0,0-1.139,1.354V23h-1.987V11.377ZM398.882,23a4.175,4.175,0,0,1-.279-1.225,4.434,4.434,0,0,1-3.309,1.439,4.1,4.1,0,0,1-2.82-.972,3.145,3.145,0,0,1-1.1-2.465,3.286,3.286,0,0,1,1.38-2.82,6.508,6.508,0,0,1,3.883-1h1.934V15.04a2.232,2.232,0,0,0-.623-1.66,2.5,2.5,0,0,0-1.837-.618,2.9,2.9,0,0,0-1.783.537,1.583,1.583,0,0,0-.72,1.3h-2a2.743,2.743,0,0,1,.618-1.681,4.216,4.216,0,0,1,1.676-1.284,5.638,5.638,0,0,1,2.326-.473,4.6,4.6,0,0,1,3.147,1,3.623,3.623,0,0,1,1.182,2.766v5.35a6.541,6.541,0,0,0,.408,2.546V23Zm-3.3-1.515A3.493,3.493,0,0,0,397.356,21a2.924,2.924,0,0,0,1.214-1.257V17.36h-1.558q-3.652,0-3.652,2.138a1.809,1.809,0,0,0,.623,1.461A2.4,2.4,0,0,0,395.584,21.485ZM406.369,8.563v2.814h2.17v1.536h-2.17V20.13a1.613,1.613,0,0,0,.29,1.049,1.221,1.221,0,0,0,.988.35,4.811,4.811,0,0,0,.945-.129V23a5.8,5.8,0,0,1-1.525.214,2.475,2.475,0,0,1-2.009-.806,3.461,3.461,0,0,1-.677-2.288V12.913h-2.116V11.377h2.116V8.563ZM413.019,23h-1.987V11.377h1.987ZM410.87,8.294a1.186,1.186,0,0,1,.3-.816,1.109,1.109,0,0,1,.875-.333,1.126,1.126,0,0,1,.881.333,1.174,1.174,0,0,1,.3.816,1.135,1.135,0,0,1-.3.806,1.147,1.147,0,0,1-.881.322,1.129,1.129,0,0,1-.875-.322A1.147,1.147,0,0,1,410.87,8.294Zm4.8,8.787a6.865,6.865,0,0,1,.671-3.072,5.009,5.009,0,0,1,1.869-2.105,5.088,5.088,0,0,1,2.734-.741,4.9,4.9,0,0,1,3.84,1.644,6.323,6.323,0,0,1,1.466,4.372v.14a6.925,6.925,0,0,1-.65,3.045,4.935,4.935,0,0,1-1.858,2.1,5.147,5.147,0,0,1-2.777.752,4.889,4.889,0,0,1-3.83-1.644,6.291,6.291,0,0,1-1.466-4.351Zm2,.236a4.972,4.972,0,0,0,.9,3.1,3.04,3.04,0,0,0,4.807-.016,5.438,5.438,0,0,0,.892-3.325,4.964,4.964,0,0,0-.908-3.1,2.886,2.886,0,0,0-2.412-1.187,2.854,2.854,0,0,0-2.374,1.171A5.4,5.4,0,0,0,417.67,17.317Zm12.955-5.94.064,1.461a4.236,4.236,0,0,1,3.48-1.676q3.685,0,3.717,4.157V23H435.9V15.309a2.676,2.676,0,0,0-.575-1.858,2.3,2.3,0,0,0-1.756-.6,2.868,2.868,0,0,0-1.7.516,3.5,3.5,0,0,0-1.139,1.354V23h-1.987V11.377Zm10.3,10.581a1.244,1.244,0,0,1,.306-.859,1.167,1.167,0,0,1,.918-.344,1.2,1.2,0,0,1,.929.344,1.219,1.219,0,0,1,.317.859,1.153,1.153,0,0,1-.317.827,1.223,1.223,0,0,1-.929.333,1.1,1.1,0,0,1-1.225-1.16Zm10.409-.365a2.863,2.863,0,0,0,1.858-.645,2.268,2.268,0,0,0,.881-1.611h1.88a3.6,3.6,0,0,1-.687,1.9,4.528,4.528,0,0,1-1.692,1.439,4.882,4.882,0,0,1-2.24.537,4.788,4.788,0,0,1-3.776-1.584,6.311,6.311,0,0,1-1.4-4.334v-.333a7,7,0,0,1,.623-3.019,4.746,4.746,0,0,1,1.789-2.052,5.081,5.081,0,0,1,2.755-.73,4.662,4.662,0,0,1,3.25,1.171,4.185,4.185,0,0,1,1.38,3.04h-1.88a2.739,2.739,0,0,0-.854-1.853,2.657,2.657,0,0,0-1.9-.725,2.781,2.781,0,0,0-2.347,1.09,5.12,5.12,0,0,0-.833,3.153v.376a5.019,5.019,0,0,0,.827,3.094A2.8,2.8,0,0,0,451.336,21.593Zm6.327-4.512a6.865,6.865,0,0,1,.671-3.072A5.009,5.009,0,0,1,460.2,11.9a5.088,5.088,0,0,1,2.734-.741,4.9,4.9,0,0,1,3.84,1.644,6.323,6.323,0,0,1,1.466,4.372v.14a6.925,6.925,0,0,1-.65,3.045,4.935,4.935,0,0,1-1.858,2.1,5.147,5.147,0,0,1-2.777.752,4.889,4.889,0,0,1-3.83-1.644,6.291,6.291,0,0,1-1.466-4.351Zm2,.236a4.972,4.972,0,0,0,.9,3.1,3.04,3.04,0,0,0,4.807-.016,5.438,5.438,0,0,0,.892-3.325,4.964,4.964,0,0,0-.908-3.1,2.886,2.886,0,0,0-2.412-1.187,2.854,2.854,0,0,0-2.374,1.171A5.4,5.4,0,0,0,459.661,17.317Zm12.944-5.94.054,1.289a4.292,4.292,0,0,1,3.448-1.5,3.323,3.323,0,0,1,3.319,1.869,4.4,4.4,0,0,1,1.509-1.354,4.458,4.458,0,0,1,2.2-.516q3.824,0,3.889,4.05V23h-1.987V15.33a2.669,2.669,0,0,0-.569-1.864,2.507,2.507,0,0,0-1.912-.618,2.635,2.635,0,0,0-1.837.661,2.68,2.68,0,0,0-.849,1.778V23h-2V15.384a2.217,2.217,0,0,0-2.481-2.535,2.659,2.659,0,0,0-2.675,1.665V23h-1.987V11.377Z" transform="translate(231 552)" fill="#fff" opacity="0.6"/>
  </g>
</svg>
