<svg xmlns="http://www.w3.org/2000/svg" xmlns:xlink="http://www.w3.org/1999/xlink" width="45" height="23" viewBox="0 0 45 23">
  <defs>
    <clipPath id="clip-open">
      <rect width="45" height="23"/>
    </clipPath>
  </defs>
  <g id="open" clip-path="url(#clip-open)">
    <g id="Rectangle_74" data-name="Rectangle 74" fill="#fff" stroke="#707070" stroke-width="1" opacity="0.32">
      <rect width="45" height="23" rx="11.5" stroke="none"/>
      <rect x="0.5" y="0.5" width="44" height="22" rx="11" fill="none"/>
    </g>
    <path id="Path_55" data-name="Path 55" d="M4.125.129A3.464,3.464,0,0,1,1.458-.951a3.965,3.965,0,0,1-1-2.809A4.2,4.2,0,0,1,1.477-6.725,3.585,3.585,0,0,1,4.249-7.831,3.387,3.387,0,0,1,6.862-6.757a3.979,3.979,0,0,1,.991,2.809A4.214,4.214,0,0,1,6.837-.967,3.52,3.52,0,0,1,4.125.129Zm.059-6.837a2.143,2.143,0,0,0-1.721.79A3.124,3.124,0,0,0,1.8-3.84a3.153,3.153,0,0,0,.645,2.068A2.078,2.078,0,0,0,4.13-.988a2.177,2.177,0,0,0,1.746-.747,3.115,3.115,0,0,0,.639-2.089,3.266,3.266,0,0,0-.62-2.132A2.1,2.1,0,0,0,4.184-6.708Zm6.209,5.9h-.021V2.53H9.125V-5.5h1.246v.967h.021a2.042,2.042,0,0,1,1.869-1.1,1.969,1.969,0,0,1,1.633.736,3.086,3.086,0,0,1,.585,1.977,3.427,3.427,0,0,1-.661,2.2,2.185,2.185,0,0,1-1.8.827A1.8,1.8,0,0,1,10.393-.811Zm-.032-2.17V-2.3a1.455,1.455,0,0,0,.384,1.021,1.265,1.265,0,0,0,.975.419,1.274,1.274,0,0,0,1.088-.54A2.512,2.512,0,0,0,13.2-2.906a1.98,1.98,0,0,0-.368-1.27,1.209,1.209,0,0,0-1-.459,1.342,1.342,0,0,0-1.072.473A1.751,1.751,0,0,0,10.361-2.981Zm10.049.569H16.661a1.585,1.585,0,0,0,.47,1.176,1.749,1.749,0,0,0,1.233.414,2.718,2.718,0,0,0,1.617-.526v1a3.694,3.694,0,0,1-1.987.473,2.46,2.46,0,0,1-1.9-.749,3,3,0,0,1-.69-2.108,2.931,2.931,0,0,1,.76-2.092,2.486,2.486,0,0,1,1.888-.808,2.168,2.168,0,0,1,1.746.725A3.011,3.011,0,0,1,20.41-2.89Zm-1.2-.881a1.606,1.606,0,0,0-.317-1.045,1.059,1.059,0,0,0-.859-.373,1.209,1.209,0,0,0-.91.392,1.791,1.791,0,0,0-.459,1.026ZM26.5,0H25.25V-3.1q0-1.542-1.09-1.542a1.19,1.19,0,0,0-.94.427,1.584,1.584,0,0,0-.371,1.077V0H21.6V-5.5h1.251v.913h.021a1.96,1.96,0,0,1,1.783-1.042,1.661,1.661,0,0,1,1.37.583A2.617,2.617,0,0,1,26.5-3.362Z" transform="translate(9 15)"/>
  </g>
</svg>
