<svg xmlns="http://www.w3.org/2000/svg" xmlns:xlink="http://www.w3.org/1999/xlink" width="262" height="147" viewBox="0 0 262 147">
  <defs>
    <clipPath id="clip-tap_to_play">
      <rect width="262" height="147"/>
    </clipPath>
  </defs>
  <g id="tap_to_play" data-name="tap to play" clip-path="url(#clip-tap_to_play)">
    <g id="play_circle_outline-24px" transform="translate(77 62)">
      <path id="Path_51" data-name="Path 51" d="M0,0H24V24H0Z" fill="none"/>
      <path id="Path_52" data-name="Path 52" d="M10,16.5,16,12,10,7.5ZM12,2A10,10,0,1,0,22,12,10,10,0,0,0,12,2Zm0,18a8,8,0,1,1,8-8A8.011,8.011,0,0,1,12,20Z"/>
    </g>
    <path id="Path_54" data-name="Path 54" d="M8.57,7.375H5.352V17H3.492V7.375H.281V5.8H8.57ZM14.6,17H12.844V15.75h-.031a2.647,2.647,0,0,1-2.43,1.438,2.559,2.559,0,0,1-1.848-.641,2.241,2.241,0,0,1-.668-1.7q0-2.266,2.609-2.641l2.375-.336q0-1.711-1.625-1.711a3.86,3.86,0,0,0-2.578.984V9.563a5.622,5.622,0,0,1,2.922-.75q3.031,0,3.031,2.984Zm-1.75-3.93-1.68.234A2.662,2.662,0,0,0,10,13.684a1.107,1.107,0,0,0-.395.973,1.065,1.065,0,0,0,.363.832,1.407,1.407,0,0,0,.973.324,1.8,1.8,0,0,0,1.371-.582,2.064,2.064,0,0,0,.543-1.465Zm5.8,2.75h-.031V20.68H16.813V9h1.813v1.406h.031a2.97,2.97,0,0,1,2.719-1.594,2.864,2.864,0,0,1,2.375,1.07,4.489,4.489,0,0,1,.852,2.875,4.984,4.984,0,0,1-.961,3.2,3.178,3.178,0,0,1-2.625,1.2A2.621,2.621,0,0,1,18.656,15.82Zm-.047-3.156v.992a2.117,2.117,0,0,0,.559,1.484,1.972,1.972,0,0,0,3-.176,3.654,3.654,0,0,0,.574-2.191,2.88,2.88,0,0,0-.535-1.848,1.759,1.759,0,0,0-1.449-.668,1.953,1.953,0,0,0-1.559.688A2.547,2.547,0,0,0,18.609,12.664ZM38.242,7.375H35.023V17H33.164V7.375H29.953V5.8h8.289Zm3.43,9.813a3.965,3.965,0,0,1-2.957-1.121,4.05,4.05,0,0,1-1.105-2.973,4.214,4.214,0,0,1,1.152-3.148,4.237,4.237,0,0,1,3.105-1.133,3.838,3.838,0,0,1,2.922,1.1,4.255,4.255,0,0,1,1.047,3.055,4.193,4.193,0,0,1-1.129,3.066A4.055,4.055,0,0,1,41.672,17.188Zm.086-6.93a2.069,2.069,0,0,0-1.68.742,3.108,3.108,0,0,0-.617,2.047,2.927,2.927,0,0,0,.625,1.98,2.1,2.1,0,0,0,1.672.723,1.992,1.992,0,0,0,1.645-.711,3.147,3.147,0,0,0,.574-2.023,3.2,3.2,0,0,0-.574-2.039A1.982,1.982,0,0,0,41.758,10.258Zm12.375,2.68V17H52.281V5.8h3.4a4.5,4.5,0,0,1,2.992.9,3.133,3.133,0,0,1,1.063,2.531A3.5,3.5,0,0,1,58.625,11.9a4.212,4.212,0,0,1-3,1.039Zm0-5.609v4.094h1.2a2.661,2.661,0,0,0,1.82-.555A1.98,1.98,0,0,0,57.781,9.3q0-1.977-2.3-1.977ZM63.25,17H61.43V5.156h1.82Zm8.5,0H69.992V15.75h-.031a2.647,2.647,0,0,1-2.43,1.438,2.559,2.559,0,0,1-1.848-.641,2.241,2.241,0,0,1-.668-1.7q0-2.266,2.609-2.641L70,11.875q0-1.711-1.625-1.711a3.86,3.86,0,0,0-2.578.984V9.563a5.622,5.622,0,0,1,2.922-.75q3.031,0,3.031,2.984ZM70,13.07l-1.68.234a2.662,2.662,0,0,0-1.176.379,1.107,1.107,0,0,0-.395.973,1.065,1.065,0,0,0,.363.832,1.407,1.407,0,0,0,.973.324,1.8,1.8,0,0,0,1.371-.582A2.064,2.064,0,0,0,70,13.766ZM80.891,9l-3.609,9.281q-1.125,2.484-3.156,2.484a3.784,3.784,0,0,1-.953-.1V19.156a2.535,2.535,0,0,0,.781.141,1.612,1.612,0,0,0,1.516-1l.539-1.312L72.828,9h2.008l1.906,5.813q.031.109.141.578h.039q.039-.18.141-.562l2-5.828Z" transform="translate(104 62)"/>
    <text id="WGTV" transform="translate(217 124)" font-size="11" font-family="SegoeUI-Semibold, Segoe UI" font-weight="600" opacity="0.32"><tspan x="0" y="12">WGTV</tspan></text>
  </g>
</svg>
