<svg xmlns="http://www.w3.org/2000/svg" xmlns:xlink="http://www.w3.org/1999/xlink" width="259" height="160" viewBox="0 0 259 160">
  <defs>
    <clipPath id="clip-taptoload_2">
      <rect width="259" height="160"/>
    </clipPath>
  </defs>
  <g id="taptoload_2" data-name="taptoload – 2" clip-path="url(#clip-taptoload_2)">
    <rect width="259" height="160" fill="#fff"/>
    <g id="Group_14" data-name="Group 14" transform="translate(14 245)">
      <rect id="Rectangle_63" data-name="Rectangle 63" width="259" height="160" transform="translate(-14 -245)" fill="none" opacity="0.9"/>
      <path id="Path_48" data-name="Path 48" d="M81.526,121.354a59.118,59.118,0,0,1-28.751,7.029q-18.322,0-29.673-11.408T11.751,86.783q0-19.187,12.417-31.488t31.545-12.3q13.771,0,23.162,4.033V61.144q-9.507-6.338-22.644-6.338-13.194,0-21.635,8.7T26.156,86.034q0,14.231,7.26,22.384t19.705,8.153a31.189,31.189,0,0,0,14.75-3.284V93.64H50.47V82.116H81.526ZM165.7,127H151.934V91.162H113.042V127H99.33V44.377h13.713V79.12h38.892V44.377H165.7Zm16.594-3.284V109.6a21.8,21.8,0,0,0,4.523,3.111,34.949,34.949,0,0,0,5.56,2.333,43.817,43.817,0,0,0,5.877,1.469,31.332,31.332,0,0,0,5.416.519q8.643,0,12.877-2.881a9.478,9.478,0,0,0,4.235-8.354,9.112,9.112,0,0,0-1.412-5.1,14.805,14.805,0,0,0-3.947-3.947,41.47,41.47,0,0,0-5.963-3.428q-3.428-1.642-7.346-3.428-4.206-2.247-7.836-4.552a33.725,33.725,0,0,1-6.309-5.1,21.334,21.334,0,0,1-4.206-6.309,20.547,20.547,0,0,1-1.527-8.239,19.017,19.017,0,0,1,2.622-10.112,22.141,22.141,0,0,1,6.914-7.087,31.7,31.7,0,0,1,9.766-4.148,46.376,46.376,0,0,1,11.178-1.354q12.964,0,18.9,2.938v13.54q-7.029-5.07-18.092-5.07a32.416,32.416,0,0,0-6.079.576,18.07,18.07,0,0,0-5.416,1.9,11.724,11.724,0,0,0-3.889,3.4,8.332,8.332,0,0,0-1.5,5.013,9.48,9.48,0,0,0,1.152,4.782,12.336,12.336,0,0,0,3.371,3.688,34.438,34.438,0,0,0,5.416,3.255q3.2,1.584,7.4,3.428,4.321,2.247,8.153,4.725a38.432,38.432,0,0,1,6.741,5.474,24.053,24.053,0,0,1,4.609,6.655,19.543,19.543,0,0,1,1.7,8.326,19.54,19.54,0,0,1-9.363,17.631,30.411,30.411,0,0,1-9.881,3.918,55.712,55.712,0,0,1-11.812,1.21,50.3,50.3,0,0,1-5.1-.317q-3.025-.317-6.194-.922a56.973,56.973,0,0,1-5.992-1.469A18.971,18.971,0,0,1,182.3,123.716Z" transform="translate(-9 -250)" opacity="0.09"/>
      <path id="Path_47" data-name="Path 47" d="M78.223,8.172H74.6V19H72.51V8.172H68.9V6.4h9.325ZM85.008,19H83.03V17.594H83a2.978,2.978,0,0,1-2.733,1.617,2.879,2.879,0,0,1-2.079-.721,2.521,2.521,0,0,1-.751-1.907q0-2.549,2.936-2.971l2.672-.378q0-1.925-1.828-1.925a4.343,4.343,0,0,0-2.9,1.107V10.633A6.325,6.325,0,0,1,81.6,9.789q3.41,0,3.41,3.357Zm-1.969-4.421-1.89.264a3,3,0,0,0-1.323.426,1.246,1.246,0,0,0-.444,1.094,1.2,1.2,0,0,0,.409.936,1.583,1.583,0,0,0,1.094.365,2.019,2.019,0,0,0,1.542-.655,2.322,2.322,0,0,0,.611-1.648Zm6.53,3.094h-.035V23.14H87.5V10h2.039v1.582h.035a3.341,3.341,0,0,1,3.059-1.793,3.222,3.222,0,0,1,2.672,1.2,5.05,5.05,0,0,1,.958,3.234,5.607,5.607,0,0,1-1.081,3.6,3.576,3.576,0,0,1-2.953,1.354A2.949,2.949,0,0,1,89.569,17.673Zm-.053-3.551v1.116a2.382,2.382,0,0,0,.628,1.67,2.218,2.218,0,0,0,3.375-.2,4.111,4.111,0,0,0,.646-2.465,3.24,3.24,0,0,0-.6-2.079,1.979,1.979,0,0,0-1.63-.751,2.2,2.2,0,0,0-1.753.773A2.865,2.865,0,0,0,89.517,14.122ZM111.6,8.172h-3.621V19h-2.092V8.172h-3.612V6.4H111.6Zm3.858,11.039a4.461,4.461,0,0,1-3.327-1.261,4.556,4.556,0,0,1-1.244-3.344,4.741,4.741,0,0,1,1.3-3.542,4.767,4.767,0,0,1,3.494-1.274,4.318,4.318,0,0,1,3.287,1.239,4.787,4.787,0,0,1,1.178,3.437,4.717,4.717,0,0,1-1.27,3.45A4.562,4.562,0,0,1,115.462,19.211Zm.1-7.8a2.328,2.328,0,0,0-1.89.835,3.5,3.5,0,0,0-.694,2.3,3.293,3.293,0,0,0,.7,2.228,2.362,2.362,0,0,0,1.881.813,2.241,2.241,0,0,0,1.85-.8,3.54,3.54,0,0,0,.646-2.276,3.594,3.594,0,0,0-.646-2.294A2.23,2.23,0,0,0,115.559,11.415ZM134.376,19H127.4V6.4h2.092V17.233h4.887Zm5.581.211a4.461,4.461,0,0,1-3.327-1.261,4.556,4.556,0,0,1-1.244-3.344,4.741,4.741,0,0,1,1.3-3.542,4.767,4.767,0,0,1,3.494-1.274,4.318,4.318,0,0,1,3.287,1.239,4.787,4.787,0,0,1,1.178,3.437,4.717,4.717,0,0,1-1.27,3.45A4.562,4.562,0,0,1,139.957,19.211Zm.1-7.8a2.328,2.328,0,0,0-1.89.835,3.5,3.5,0,0,0-.694,2.3,3.293,3.293,0,0,0,.7,2.228,2.362,2.362,0,0,0,1.881.813,2.241,2.241,0,0,0,1.85-.8,3.54,3.54,0,0,0,.646-2.276,3.594,3.594,0,0,0-.646-2.294A2.23,2.23,0,0,0,140.054,11.415ZM153.413,19h-1.978V17.594H151.4a2.978,2.978,0,0,1-2.733,1.617,2.879,2.879,0,0,1-2.079-.721,2.521,2.521,0,0,1-.751-1.907q0-2.549,2.936-2.971l2.672-.378q0-1.925-1.828-1.925a4.343,4.343,0,0,0-2.9,1.107V10.633A6.325,6.325,0,0,1,150,9.789q3.41,0,3.41,3.357Zm-1.969-4.421-1.89.264a3,3,0,0,0-1.323.426,1.246,1.246,0,0,0-.444,1.094,1.2,1.2,0,0,0,.409.936,1.583,1.583,0,0,0,1.094.365,2.019,2.019,0,0,0,1.542-.655,2.322,2.322,0,0,0,.611-1.648ZM164.083,19h-2.039V17.471h-.035a3.519,3.519,0,0,1-5.691.532,5.017,5.017,0,0,1-1-3.292,5.465,5.465,0,0,1,1.1-3.577,3.61,3.61,0,0,1,2.94-1.345,2.815,2.815,0,0,1,2.646,1.459h.035V5.676h2.039Zm-2.013-4.113V13.709a2.3,2.3,0,0,0-.624-1.626,2.081,2.081,0,0,0-1.591-.668,2.142,2.142,0,0,0-1.8.853,3.8,3.8,0,0,0-.655,2.364,3.4,3.4,0,0,0,.628,2.167,2.044,2.044,0,0,0,1.692.8,2.116,2.116,0,0,0,1.7-.769A2.9,2.9,0,0,0,162.07,14.887Z" transform="translate(-1 -175)"/>
    </g>
  </g>
</svg>
